<?xml version="1.0" encoding="UTF-8"?>
<!DOCTYPE svg PUBLIC "-//W3C//DTD SVG 1.1//EN" "http://www.w3.org/Graphics/SVG/1.1/DTD/svg11.dtd">
<!-- Creator: CorelDRAW -->
<svg xmlns="http://www.w3.org/2000/svg" xml:space="preserve" width="740mm" height="100mm" version="1.1" style="shape-rendering:geometricPrecision; text-rendering:geometricPrecision; image-rendering:optimizeQuality; fill-rule:evenodd; clip-rule:evenodd"
viewBox="0 0 74000 10000"
 xmlns:xlink="http://www.w3.org/1999/xlink"
 xmlns:xodm="http://www.corel.com/coreldraw/odm/2003">
 <defs>
  <style type="text/css">
   <![CDATA[
    .fil1 {fill:none}
    .fil3 {fill:black;fill-rule:nonzero}
    .fil0 {fill:#B1ABAB;fill-rule:nonzero}
    .fil2 {fill:#FF3131;fill-rule:nonzero}
   ]]>
  </style>
     <clipPath id="id0">
      <path d="M62.16 -188.95l73887.81 0 0 9709.39 -73887.81 0 0 -9709.39z"/>
     </clipPath>
     <clipPath id="id1">
      <path d="M62.16 -188.95l73887.81 0 0 9709.39 -73887.81 0 0 -9709.39z"/>
     </clipPath>
     <clipPath id="id2">
      <path d="M62.16 -188.95l73887.81 0 0 9709.39 -73887.81 0 0 -9709.39z"/>
     </clipPath>
     <clipPath id="id3">
      <path d="M62.16 -188.95l73887.81 0 0 9709.39 -73887.81 0 0 -9709.39z"/>
     </clipPath>
     <clipPath id="id4">
      <path d="M62.16 -188.95l73887.81 0 0 9709.39 -73887.81 0 0 -9709.39z"/>
     </clipPath>
     <clipPath id="id5">
      <path d="M62.16 -188.95l73887.81 0 0 9709.39 -73887.81 0 0 -9709.39z"/>
     </clipPath>
     <clipPath id="id6">
      <path d="M62.16 -188.95l73887.81 0 0 9709.39 -73887.81 0 0 -9709.39z"/>
     </clipPath>
     <clipPath id="id7">
      <path d="M62.16 -188.95l73887.81 0 0 9709.39 -73887.81 0 0 -9709.39z"/>
     </clipPath>
     <clipPath id="id8">
      <path d="M62.16 -188.95l73887.81 0 0 9709.39 -73887.81 0 0 -9709.39z"/>
     </clipPath>
     <clipPath id="id9">
      <path d="M62.16 -188.95l73887.81 0 0 9709.39 -73887.81 0 0 -9709.39z"/>
     </clipPath>
     <clipPath id="id10">
      <path d="M62.16 -188.95l73887.81 0 0 9709.39 -73887.81 0 0 -9709.39z"/>
     </clipPath>
     <clipPath id="id11">
      <path d="M62.16 -188.95l73887.81 0 0 9709.39 -73887.81 0 0 -9709.39z"/>
     </clipPath>
     <clipPath id="id12">
      <path d="M62.16 -188.95l73887.81 0 0 9709.39 -73887.81 0 0 -9709.39z"/>
     </clipPath>
     <clipPath id="id13">
      <path d="M62.16 -188.95l73887.81 0 0 9709.39 -73887.81 0 0 -9709.39z"/>
     </clipPath>
     <clipPath id="id14">
      <path d="M62.16 -188.95l73887.81 0 0 9709.39 -73887.81 0 0 -9709.39z"/>
     </clipPath>
     <clipPath id="id15">
      <path d="M62.16 -188.95l73887.81 0 0 9709.39 -73887.81 0 0 -9709.39z"/>
     </clipPath>
     <clipPath id="id16">
      <path d="M62.16 -188.95l73887.81 0 0 9709.39 -73887.81 0 0 -9709.39z"/>
     </clipPath>
     <clipPath id="id17">
      <path d="M62.16 -188.95l73887.81 0 0 9709.39 -73887.81 0 0 -9709.39z"/>
     </clipPath>
     <clipPath id="id18">
      <path d="M62.16 -188.95l73887.81 0 0 9709.39 -73887.81 0 0 -9709.39z"/>
     </clipPath>
     <clipPath id="id19">
      <path d="M62.16 -188.95l73887.81 0 0 9709.39 -73887.81 0 0 -9709.39z"/>
     </clipPath>
     <clipPath id="id20">
      <path d="M62.16 -188.95l73887.81 0 0 9709.39 -73887.81 0 0 -9709.39z"/>
     </clipPath>
     <clipPath id="id21">
      <path d="M62.16 -188.95l73887.81 0 0 9709.39 -73887.81 0 0 -9709.39z"/>
     </clipPath>
     <clipPath id="id22">
      <path d="M62.16 -188.95l73887.81 0 0 9709.39 -73887.81 0 0 -9709.39z"/>
     </clipPath>
     <clipPath id="id23">
      <path d="M62.16 -188.95l73887.81 0 0 9709.39 -73887.81 0 0 -9709.39z"/>
     </clipPath>
     <clipPath id="id24">
      <path d="M62.16 -188.95l73887.81 0 0 9709.39 -73887.81 0 0 -9709.39z"/>
     </clipPath>
     <clipPath id="id25">
      <path d="M62.16 -188.95l73887.81 0 0 9709.39 -73887.81 0 0 -9709.39z"/>
     </clipPath>
     <clipPath id="id26">
      <path d="M62.16 -188.95l73887.81 0 0 9709.39 -73887.81 0 0 -9709.39z"/>
     </clipPath>
     <clipPath id="id27">
      <path d="M62.16 -188.95l73887.81 0 0 9709.39 -73887.81 0 0 -9709.39z"/>
     </clipPath>
     <clipPath id="id28">
      <path d="M62.16 -188.95l73887.81 0 0 9709.39 -73887.81 0 0 -9709.39z"/>
     </clipPath>
     <clipPath id="id29">
      <path d="M62.16 -188.95l73887.81 0 0 9709.39 -73887.81 0 0 -9709.39z"/>
     </clipPath>
     <clipPath id="id30">
      <path d="M62.16 -188.95l73887.81 0 0 9709.39 -73887.81 0 0 -9709.39z"/>
     </clipPath>
     <clipPath id="id31">
      <path d="M62.16 -188.95l73887.81 0 0 9709.39 -73887.81 0 0 -9709.39z"/>
     </clipPath>
     <clipPath id="id32">
      <path d="M62.16 -188.95l73887.81 0 0 9709.39 -73887.81 0 0 -9709.39z"/>
     </clipPath>
     <clipPath id="id33">
      <path d="M62.16 -188.95l73887.81 0 0 9709.39 -73887.81 0 0 -9709.39z"/>
     </clipPath>
     <clipPath id="id34">
      <path d="M62.16 -188.95l73887.81 0 0 9709.39 -73887.81 0 0 -9709.39z"/>
     </clipPath>
     <clipPath id="id35">
      <path d="M62.16 -188.95l73887.81 0 0 9709.39 -73887.81 0 0 -9709.39z"/>
     </clipPath>
     <clipPath id="id36">
      <path d="M62.16 -188.95l73887.81 0 0 9709.39 -73887.81 0 0 -9709.39z"/>
     </clipPath>
     <clipPath id="id37">
      <path d="M62.16 -188.95l73887.81 0 0 9709.39 -73887.81 0 0 -9709.39z"/>
     </clipPath>
     <clipPath id="id38">
      <path d="M62.16 -188.95l73887.81 0 0 9709.39 -73887.81 0 0 -9709.39z"/>
     </clipPath>
     <clipPath id="id39">
      <path d="M62.16 -188.95l73887.81 0 0 9709.39 -73887.81 0 0 -9709.39z"/>
     </clipPath>
     <clipPath id="id40">
      <path d="M62.16 -188.95l73887.81 0 0 9709.39 -73887.81 0 0 -9709.39z"/>
     </clipPath>
     <clipPath id="id41">
      <path d="M62.16 -188.95l73887.81 0 0 9709.39 -73887.81 0 0 -9709.39z"/>
     </clipPath>
     <clipPath id="id42">
      <path d="M62.16 -188.95l73887.81 0 0 9709.39 -73887.81 0 0 -9709.39z"/>
     </clipPath>
     <clipPath id="id43">
      <path d="M62.16 -188.95l73887.81 0 0 9709.39 -73887.81 0 0 -9709.39z"/>
     </clipPath>
     <clipPath id="id44">
      <path d="M62.16 -188.95l73887.81 0 0 9709.39 -73887.81 0 0 -9709.39z"/>
     </clipPath>
     <clipPath id="id45">
      <path d="M62.16 -188.95l73887.81 0 0 9709.39 -73887.81 0 0 -9709.39z"/>
     </clipPath>
 </defs>
 <g id="Katman_x0020_1">
  <metadata id="CorelCorpID_0Corel-Layer"/>
  <g id="surface1">
   <g>
    <g>
    </g>
    <g style="clip-path:url(#id0)">
     <g>
      <path class="fil0" d="M7738.53 368.65c248.36,-196.37 580.33,-166.6 876.33,-143.04 240.29,61.91 361.63,270.69 510.87,446.59 23.57,170.43 109.66,340.76 59.43,513.56 -71.21,154.93 -159.78,301.07 -258.8,439.87 -250.83,167.23 -550.56,239.16 -849.66,203.81l3.1 -48.99c306.55,32.87 638.41,-43.92 847.8,-283.08 276.78,-275.02 233.48,-771.84 -47.74,-1027.74 -429.75,-410.72 -1316.62,-200.71 -1387.83,432.43 -76.17,387.78 216.11,708.69 535.06,875.4 -280.5,-31.01 -500.95,-254.66 -567.82,-518.52 -20.46,-310.37 -30.38,-714.9 279.26,-890.29zm0 0z"/>
     </g>
    </g>
    <polygon class="fil1" points="62.16,-188.95 73949.97,-188.95 73949.97,9520.44 62.16,9520.44 "/>
   </g>
   <g>
    <g>
    </g>
    <g style="clip-path:url(#id1)">
     <g>
      <path class="fil0" d="M26602.08 905.78c104.7,-5.58 105.32,302.93 -1.24,293 -6.2,-97.87 -5.58,-195.75 1.24,-293zm0 0z"/>
     </g>
    </g>
    <polygon class="fil1" points="62.16,-188.95 73949.97,-188.95 73949.97,9520.44 62.16,9520.44 "/>
   </g>
   <g>
    <g>
    </g>
    <g style="clip-path:url(#id2)">
     <g>
      <path class="fil0" d="M25605.66 1781.7c409.38,49.6 815.66,-162.89 995.18,-536.41 15.5,333.21 -338.69,454.03 -583.94,572.99 -136.22,26.05 -276.26,7.44 -413.1,11.16l1.86 -47.74zm0 0z"/>
     </g>
    </g>
    <polygon class="fil1" points="62.16,-188.95 73949.97,-188.95 73949.97,9520.44 62.16,9520.44 "/>
   </g>
   <g>
    <g>
    </g>
    <g style="clip-path:url(#id3)">
     <g>
      <g>
       <path class="fil0" d="M43567.56 2508.99c279.98,-183.35 619.91,-218.59 935.75,-308.51 364.74,-3.72 730.81,-3.1 1096.17,0 340.03,109.66 699.8,176.01 1013.16,354.4 190.07,168.46 450.21,244.74 623.01,433.05 113.9,191.41 288.57,331.97 434.71,496.81 275.02,364.22 440.28,794.79 572.88,1227.22 45.17,106.55 26.56,223.65 30.28,335.79 -7.44,349.33 3.72,698.77 -2.48,1047.48 -121.33,219.94 -94.05,485.76 -242.05,692.05 -152.96,222.93 -243.4,486.28 -441.63,676.45 -409.27,593.45 -1076.31,939.16 -1737.67,1178.22 -322.05,-42.07 -634.79,140.66 -951.26,35.34 -168.46,-53.22 -346.85,-24.8 -519.55,-35.34 -423.65,-95.4 -854.63,-224.79 -1182.88,-523.48 -1.86,-20.98 -5.58,-64.39 -7.44,-85.48 146.76,-99.11 324.53,-66.87 491.14,-83.61 554.9,-97.25 1103.49,-277.5 1577.88,-588.49 245.26,-138.18 511.6,-256.52 700.43,-473.87 107.17,-122.68 240.29,-215.6 369.79,-312.23 160.3,-219.32 332.49,-446.69 579.61,-574.33 21.7,207.53 -62.53,454.75 106.55,619.49 162.89,-371.03 191.93,-794.16 62.53,-1179.46 -170.94,-35.35 -344.37,-120.82 -520.17,-62.01 -267.58,109.04 -652.16,-61.91 -829.93,229.85 22.33,27.91 66.25,83.62 88.58,111.52 268.2,45.27 554.9,-49.61 810.08,66.25 -113.38,164.23 -237.2,319.67 -364.22,472.74 -249.49,372.27 -655.77,587.25 -984.64,879.01 -237.2,74.93 -427.88,239.78 -654.54,336.42 -444.72,157.92 -892.45,322.77 -1366.22,369.79 -91.67,4.34 -177.76,32.87 -261.89,63.26 -94.16,-49.61 -190.17,-94.88 -281.85,-146.87 -173.42,-219.93 -357.29,-432.43 -516.45,-662.28 -170.95,-315.23 -266.96,-663.43 -361.63,-1006.66 -21.71,-319.05 -120.2,-636.76 -51.47,-957.67 41.54,-127.02 44.65,-260.24 46.51,-391.5 214.25,-947.85 858.34,-1804.02 1738.91,-2233.35l0 0zm946.3 -226.03c-1490.04,209.39 -2717.46,1626.15 -2667.95,3138.31 -36.49,757.57 271.92,1502.23 749.41,2080.28 103.97,113.28 203.71,245.88 349.23,308.51 331.35,7.96 654.01,-88.68 972.34,-171.05 1032.29,-291.14 1998.43,-916.84 2581.13,-1830.58 -281.74,-4.96 -572.16,26.66 -841.6,-73.69 -18.6,-70.08 -25.32,-143.15 -17.98,-214.36 258.28,-186.45 599.55,-172.8 904.23,-191.41 183.25,8.06 379.62,-37.2 555.52,27.91 129.4,265.72 144.29,574.85 95.92,862.89 -26.57,195.13 -58.19,459.71 -294.15,501.78 -25.42,-195.75 -53.22,-390.26 -88.57,-583.53 -743.73,917.46 -1779.84,1623.05 -2952.79,1839.89 -190.07,25.42 -380.24,55.08 -566.58,100.35 618.67,521 1481.98,600.9 2257.33,516.04 1290.57,-185.83 2384.87,-1260.7 2629.5,-2536.79 32.15,-405.77 30.28,-815.87 1.86,-1221.63 -205.67,-1123.76 -1071.46,-2097.65 -2157.69,-2445.13 -482.35,-174.77 -1006.97,-119.58 -1509.16,-107.79z"/>
      </g>
     </g>
    </g>
    <polygon class="fil1" points="62.16,-188.95 73949.97,-188.95 73949.97,9520.44 62.16,9520.44 "/>
   </g>
   <g>
    <g>
    </g>
    <g style="clip-path:url(#id4)">
     <g>
      <path class="fil0" d="M61276.76 2710.94c-30.28,-274.4 286.19,-390.88 501.06,-451.55 209.91,11.78 492.37,146.14 492.37,382.82 -118.34,-130.74 -241.54,-302.93 -437.29,-299.21 -253.94,-32.24 -423.54,187.69 -556.14,367.94zm0 0z"/>
     </g>
    </g>
    <polygon class="fil1" points="62.16,-188.95 73949.97,-188.95 73949.97,9520.44 62.16,9520.44 "/>
   </g>
   <g>
    <g>
    </g>
    <g style="clip-path:url(#id5)">
     <g>
      <path class="fil0" d="M28525.58 2326.88c413.72,167.33 943.82,-105.94 1291.29,250.32 6.82,608.34 -16.74,1218.53 12.4,1825.63 152.35,273.78 465.09,84.85 697.95,60.05 193.78,-108.42 363.49,-255.8 502.81,-428.71 122.06,-229.76 121.44,-498.68 179.01,-747.66 58.8,-227.37 14.88,-463.43 34.62,-694.43 52.71,-153.06 211.25,-213.11 340.65,-288.14l-45.79 56.43c-90.43,103.45 -224.27,192.65 -237.81,341.27 -49.61,419.4 -8.68,861.14 -177.15,1259.46 -204.95,451.03 -730.81,708.69 -1213.77,622.59 -143.77,-37.82 -135.09,-216.83 -142.53,-334.55 0,-415.68 -28.42,-830.75 -7.95,-1246.33 -8.69,-148.11 25.32,-316.57 -55.82,-447.93 -301.58,-170.95 -670.03,-151.83 -1005.72,-162.89 -215.49,-24.18 -431.6,153.59 -421.06,375.38 -6.2,802.23 5.58,1605.69 -4.96,2407.92l-65.63 -1.86c-0.62,-804.71 1.24,-1608.79 -2.48,-2413.5 -13.64,-202.57 163.5,-341.99 321.94,-433.05zm0 0z"/>
     </g>
    </g>
    <polygon class="fil1" points="62.16,-188.95 73949.97,-188.95 73949.97,9520.44 62.16,9520.44 "/>
   </g>
   <g>
    <g>
    </g>
    <g style="clip-path:url(#id6)">
     <g>
      <path class="fil0" d="M36453.78 2344.24c229.13,24.81 461.99,102.84 628.59,267.59 630.45,629.41 1258.43,1261.93 1887.64,1892.59 201.23,196.99 384.57,416.93 618.05,578.57 27.8,-833.23 5.48,-1668.22 12.92,-2502.07 101.59,-90.43 206.29,-178.49 320.19,-254.66 372.79,122.68 779.07,26.67 1166.13,58.91 50.23,100.36 136.21,193.89 125.78,314.09 -4.34,1788.42 0,3577.56 -1.86,5366.6 -67.6,65.01 -133.23,131.36 -197.61,199.47 -125.68,-55.09 -263.14,-58.19 -396.98,-56.95 -229.76,-166.71 -448.35,-351.91 -621.15,-579.29 -424.16,-357.39 -779.7,-789.2 -1193.94,-1157.14 -127.02,-78.75 -241.53,-175.39 -305.92,-312.85 -87.95,-43.41 -161.64,-99.11 -152.34,-208.15 713.34,644.2 1388.44,1330.05 2060.34,2017.03 156.68,148.73 388.29,277.51 607.5,194.51 179.01,-26.66 142.42,-249.08 161.65,-382.81 -5.58,-1095.86 31.62,-2192.43 -9.3,-3288.28 4.34,-595.93 35.96,-1192.48 -5.58,-1787.9 -11.79,-139.94 -103.98,-288.05 -254.46,-300.45 -291.14,-15.4 -582.81,-13.54 -873.23,-5.58 -173.42,-7.96 -353.05,129.5 -356.15,309.13 -29.04,812.77 40.93,1629.25 -53.85,2439.02 -346.75,-197.61 -583.32,-527.2 -884.91,-780 -535.67,-517.9 -1053.47,-1054.3 -1578.61,-1582.75 -183.97,-198.85 -428.5,-379.2 -710.96,-376.1 -152.34,39.69 -208.67,196.37 -265.62,324.01 -86.09,-164.74 125.06,-338.17 273.68,-386.54zm0 0z"/>
     </g>
    </g>
    <polygon class="fil1" points="62.16,-188.95 73949.97,-188.95 73949.97,9520.44 62.16,9520.44 "/>
   </g>
   <g>
    <g>
    </g>
    <g style="clip-path:url(#id7)">
     <g>
      <path class="fil0" d="M31766.42 2395.61c336.82,2.48 695.46,-70.59 1017.4,53.33 33.49,143.14 73.18,284.95 85.48,432.43l-83.62 0c-6.09,-146.24 17.37,-349.44 -151.72,-413.21 -275.54,-116.47 -582.7,4.97 -867.54,-72.55zm0 0z"/>
     </g>
    </g>
    <polygon class="fil1" points="62.16,-188.95 73949.97,-188.95 73949.97,9520.44 62.16,9520.44 "/>
   </g>
   <g>
    <g>
    </g>
    <g style="clip-path:url(#id8)">
     <g>
      <path class="fil0" d="M52254.99 2384.55c380.85,2.48 762.33,-1.86 1143.8,0.62 139.32,3.72 248.36,121.96 258.9,258.9 8.68,306.03 -3.1,612.68 1.24,919.33l-61.29 -0.62c3.72,-305.41 25.94,-612.06 6.82,-916.85 -14.26,-180.87 -229.23,-224.27 -375.99,-229.23 -271.2,6.2 -541.88,-4.35 -811.84,-12.41 -165.36,2.48 -249.6,169.19 -305.3,301.07 -0.62,-43.31 -2.48,-129.4 -3.1,-172.81 48.26,-48.88 97.87,-98.49 146.76,-148zm0 0z"/>
     </g>
    </g>
    <polygon class="fil1" points="62.16,-188.95 73949.97,-188.95 73949.97,9520.44 62.16,9520.44 "/>
   </g>
   <g>
    <g>
    </g>
    <g style="clip-path:url(#id9)">
     <g>
      <path class="fil0" d="M5798.91 2626.71l50.74 7.44c1.24,1754.41 -2.48,3508.83 2.48,5263.24 9.93,119.48 -76.79,212.5 -127.53,312.23 -144.9,-0.62 -290.43,-0.62 -435.33,-0.62l6.83 -36.58c137.45,9.3 284.22,29.76 414.23,-31.63 110.28,-136.84 87.96,-322.15 94.16,-485.65 -3.1,-847.5 12.4,-1695.51 9.92,-2543.62 -20.46,-392.12 -37.21,-785.48 -11.78,-1177.71 28.52,-435.42 -17.99,-870.95 -3.72,-1307.1zm0 0z"/>
     </g>
    </g>
    <polygon class="fil1" points="62.16,-188.95 73949.97,-188.95 73949.97,9520.44 62.16,9520.44 "/>
   </g>
   <g>
    <g>
    </g>
    <g style="clip-path:url(#id10)">
     <g>
      <path class="fil0" d="M62285.59 2680.04c137.56,128.16 198.23,310.99 263.86,482.55 300.96,666.53 620.53,1324.47 919.63,1990.99 66.87,250.32 279.88,447.31 281.12,715.51 -237.09,-382.81 -375.89,-813.38 -585.8,-1210.46 -287.94,-661.57 -626.73,-1301.53 -878.81,-1978.59zm0 0z"/>
     </g>
    </g>
    <polygon class="fil1" points="62.16,-188.95 73949.97,-188.95 73949.97,9520.44 62.16,9520.44 "/>
   </g>
   <g>
    <g>
    </g>
    <g style="clip-path:url(#id11)">
     <g>
      <path class="fil0" d="M47230.07 2831.14c41.45,41.55 41.45,41.55 0,0zm0 0z"/>
     </g>
    </g>
    <polygon class="fil1" points="62.16,-188.95 73949.97,-188.95 73949.97,9520.44 62.16,9520.44 "/>
   </g>
   <g>
    <g>
    </g>
    <g style="clip-path:url(#id12)">
     <g>
      <path class="fil0" d="M52048.18 2943.28l59.42 -3.72c-25.42,424.36 3.11,925.52 -318.94,1252.63 4.96,-91.05 60.05,-161.74 113.89,-230.47 68.22,-337.66 188.31,-667.77 145.63,-1018.44zm0 0z"/>
     </g>
    </g>
    <polygon class="fil1" points="62.16,-188.95 73949.97,-188.95 73949.97,9520.44 62.16,9520.44 "/>
   </g>
   <g>
    <g>
    </g>
    <g style="clip-path:url(#id13)">
     <g>
      <path class="fil0" d="M2324.7 3290.85c169.71,120.2 400.08,246.5 442.14,465.19 -159.78,-142.42 -322.66,-285.56 -442.14,-465.19zm0 0z"/>
     </g>
    </g>
    <polygon class="fil1" points="62.16,-188.95 73949.97,-188.95 73949.97,9520.44 62.16,9520.44 "/>
   </g>
   <g>
    <g>
    </g>
    <g style="clip-path:url(#id14)">
     <g>
      <path class="fil0" d="M67021.94 3678.63c172.81,-61.9 360.49,-42.78 537.54,-6.2 -178.29,27.29 -359.77,21.71 -537.54,6.2zm0 0z"/>
     </g>
    </g>
    <polygon class="fil1" points="62.16,-188.95 73949.97,-188.95 73949.97,9520.44 62.16,9520.44 "/>
   </g>
   <g>
    <g>
    </g>
    <g style="clip-path:url(#id15)">
     <g>
      <path class="fil0" d="M9057 3855.16c31.01,-145.52 208.67,-137.46 322.05,-168.46l2.48 62.52c-44.65,0 -134.36,-0.62 -179.01,-0.62 -199.98,272.03 -115.75,616.4 -132.49,929.25l-63.15 1.86c6.82,-275.02 -6.2,-553.77 50.12,-824.55zm0 0z"/>
     </g>
    </g>
    <polygon class="fil1" points="62.16,-188.95 73949.97,-188.95 73949.97,9520.44 62.16,9520.44 "/>
   </g>
   <g>
    <g>
    </g>
    <g style="clip-path:url(#id16)">
     <g>
      <path class="fil0" d="M13215.51 4057.73c29.14,-131.26 52.71,-311.61 206.29,-353.05 262.52,-44.65 525.14,36.48 788.27,43.92l0.62 72.56c-264.37,9.2 -516.45,-118.34 -782.17,-62.01 -96.53,73.69 -155.96,177.14 -154.2,300.44l-58.81 -1.86zm0 0z"/>
     </g>
    </g>
    <polygon class="fil1" points="62.16,-188.95 73949.97,-188.95 73949.97,9520.44 62.16,9520.44 "/>
   </g>
   <g>
    <g>
    </g>
    <g style="clip-path:url(#id17)">
     <g>
      <path class="fil0" d="M58437.35 3729.38c9.3,-1.24 26.66,-4.96 35.34,-6.2 -8.68,1.24 -26.04,4.96 -35.34,6.2zm0 0z"/>
     </g>
    </g>
    <polygon class="fil1" points="62.16,-188.95 73949.97,-188.95 73949.97,9520.44 62.16,9520.44 "/>
   </g>
   <g>
    <g>
    </g>
    <g style="clip-path:url(#id18)">
     <g>
      <path class="fil0" d="M66582.9 4078.2c22.32,-208.78 229.75,-317.19 403.8,-387.16 -73.69,116.47 -196.37,181.48 -299.21,266.96 -70.59,145.62 -68.11,301.68 0,447.93 86.71,107.79 214.35,170.94 318.95,260.14 416.82,29.76 829.3,103.45 1244.78,151.82 284.94,113.38 606.89,135.6 859.58,319.67 346.24,196.37 600.07,572.99 590.87,980.61 -70.69,-241.63 -148.72,-493.09 -335.07,-673.34 -263.24,-330.21 -689.26,-438.63 -1075.69,-550.15 -529.48,-128.26 -1140.71,-24.18 -1599.7,-371.65 -146.14,-96.64 -120.1,-294.25 -108.31,-444.83zm0 0z"/>
     </g>
    </g>
    <polygon class="fil1" points="62.16,-188.95 73949.97,-188.95 73949.97,9520.44 62.16,9520.44 "/>
   </g>
   <g>
    <g>
    </g>
    <g style="clip-path:url(#id19)">
     <g>
      <path class="fil0" d="M67635.65 3686.7c264.48,20.46 429.84,240.91 606.27,410.1 120.2,125.16 309.64,82.37 465.71,91.67l0 58.81c-176.43,-3.72 -378.38,35.35 -512.12,-109.66 -165.36,-176.52 -353.57,-325.76 -559.86,-450.92zm0 0z"/>
     </g>
    </g>
    <polygon class="fil1" points="62.16,-188.95 73949.97,-188.95 73949.97,9520.44 62.16,9520.44 "/>
   </g>
   <g>
    <g>
    </g>
    <g style="clip-path:url(#id20)">
     <g>
      <path class="fil0" d="M70725.9 3704.06c122.68,-0.62 259.52,-4.34 361.74,77.41 94.67,179.63 89.71,387.78 92.19,585.39 0,351.3 5.58,703.11 4.96,1055.03l-61.91 -0.62c-4.96,-472.12 8.68,-944.13 -6.82,-1415.52 -25.94,-203.82 -235.96,-231.72 -390.16,-301.69zm0 0z"/>
     </g>
    </g>
    <polygon class="fil1" points="62.16,-188.95 73949.97,-188.95 73949.97,9520.44 62.16,9520.44 "/>
   </g>
   <g>
    <g>
    </g>
    <g style="clip-path:url(#id21)">
     <g>
      <path class="fil0" d="M72658.7 3902.91c-2.48,-157.41 165.37,-171.67 279.98,-214.97 -89.81,121.43 -270.68,203.19 -265.1,372.89 -5.58,884.08 -0.62,1768.68 -2.48,2653.28 130.13,73.79 269.45,128.26 420.55,138.18 185.72,13.02 333.1,182.73 324.53,367.94 -1.25,243.5 3.1,486.99 -1.87,729.77 -6.2,159.89 -160.4,278.12 -315.84,262.1 -338.79,-5.58 -678.82,6.82 -1016.89,-9.92 298.48,-71.93 602.55,-16.74 904.13,-1.86 159.16,17.36 348.09,-79.99 356.77,-256.52 25.95,-288.04 42.69,-587.25 -21.08,-870.95 -132.5,-224.28 -450.82,-150.59 -649.68,-283.19 -94.77,-280.6 -26.56,-582.91 -45.78,-872.82 27.18,-670.86 -61.29,-1346.79 32.76,-2013.93zm0 0z"/>
     </g>
    </g>
    <polygon class="fil1" points="62.16,-188.95 73949.97,-188.95 73949.97,9520.44 62.16,9520.44 "/>
   </g>
   <g>
    <g>
    </g>
    <g style="clip-path:url(#id22)">
     <g>
      <path class="fil0" d="M69510.88 3751.7l64.39 -8.06c-1.24,98.5 -1.24,196.99 -0.62,296.11 -70.59,66.35 -138.08,134.46 -203.09,204.43 -180.86,0 -360.49,0 -540.01,0l0 -56.95c175.28,-4.96 354.81,15.51 528.23,-22.32 161.65,-76.79 154.2,-261.38 151.1,-413.21zm0 0z"/>
     </g>
    </g>
    <polygon class="fil1" points="62.16,-188.95 73949.97,-188.95 73949.97,9520.44 62.16,9520.44 "/>
   </g>
   <g>
    <g>
    </g>
    <g style="clip-path:url(#id23)">
     <g>
      <path class="fil0" d="M65184.53 4807.35c-45.27,-273.16 -146.76,-580.43 -20.46,-843.15 9.3,278.12 21.7,557.59 70.59,831.99l-50.13 11.16zm0 0z"/>
     </g>
    </g>
    <polygon class="fil1" points="62.16,-188.95 73949.97,-188.95 73949.97,9520.44 62.16,9520.44 "/>
   </g>
   <g>
    <g>
    </g>
    <g style="clip-path:url(#id24)">
     <g>
      <path class="fil0" d="M55709.35 4567.57l48.37 -5.58c2.48,26.67 7.44,78.76 9.92,105.32l-48.37 6.2c-2.48,-26.67 -7.44,-79.27 -9.92,-105.94zm0 0z"/>
     </g>
    </g>
    <polygon class="fil1" points="62.16,-188.95 73949.97,-188.95 73949.97,9520.44 62.16,9520.44 "/>
   </g>
   <g>
    <g>
    </g>
    <g style="clip-path:url(#id25)">
     <g>
      <path class="fil0" d="M55702.53 4863.68l65.73 -6.2c3.72,270.78 5.48,542.08 1.24,812.76l-66.97 -1.24c-0.62,-268.2 -0.62,-537.02 0,-805.32zm0 0z"/>
     </g>
    </g>
    <polygon class="fil1" points="62.16,-188.95 73949.97,-188.95 73949.97,9520.44 62.16,9520.44 "/>
   </g>
   <g>
    <g>
    </g>
    <g style="clip-path:url(#id26)">
     <g>
      <path class="fil0" d="M9005.02 4924.45l65.01 1.24c0,597.17 0,1193.72 0,1790.9 210.53,177.14 615.56,44.65 702.9,359.98 -208.77,-161.13 -475.63,-181.6 -709.73,-284.43 -73.69,-200.71 -42.78,-418.68 -48.26,-627.46 9.2,-413.2 2.38,-827.03 -9.92,-1240.23zm0 0z"/>
     </g>
    </g>
    <polygon class="fil1" points="62.16,-188.95 73949.97,-188.95 73949.97,9520.44 62.16,9520.44 "/>
   </g>
   <g>
    <g>
    </g>
    <g style="clip-path:url(#id27)">
     <g>
      <path class="fil0" d="M2345.16 5974.41c-2.48,-187.07 28.43,-372.28 78.66,-551.9 246.39,219.93 479.86,454.03 704.76,695.66 -284.94,-91.67 -443.49,-393.36 -667.66,-580.43 -38.34,122.68 -86.09,245.26 -78.65,376.62 -1.24,639.96 -0.62,1279.92 1.86,1920.4 14.88,105.94 -58.19,189.55 -106.46,276.37 34.01,-171.05 63.77,-343.24 63.15,-517.9 1.24,-539.61 1.86,-1079.21 4.34,-1618.82zm0 0z"/>
     </g>
    </g>
    <polygon class="fil1" points="62.16,-188.95 73949.97,-188.95 73949.97,9520.44 62.16,9520.44 "/>
   </g>
   <g>
    <g>
    </g>
    <g style="clip-path:url(#id28)">
     <g>
      <path class="fil0" d="M45868.19 5619.5c40.93,41.54 40.93,41.54 0,0zm0 0z"/>
     </g>
    </g>
    <polygon class="fil1" points="62.16,-188.95 73949.97,-188.95 73949.97,9520.44 62.16,9520.44 "/>
   </g>
   <g>
    <g>
    </g>
    <g style="clip-path:url(#id29)">
     <g>
      <path class="fil0" d="M771.51 5669l60.67 0c-2.48,247.84 1.24,495.68 1.24,744.04l-61.91 -0.62c0,-247.74 0,-495.58 0,-743.42zm0 0z"/>
     </g>
    </g>
    <polygon class="fil1" points="62.16,-188.95 73949.97,-188.95 73949.97,9520.44 62.16,9520.44 "/>
   </g>
   <g>
    <g>
    </g>
    <g style="clip-path:url(#id30)">
     <g>
      <path class="fil0" d="M36132.35 5669l67.49 -2.48c4.34,331.46 5.58,663.53 0,994.98l-67.49 -1.24c0,-330.21 0,-661.04 0,-991.26zm0 0z"/>
     </g>
    </g>
    <polygon class="fil1" points="62.16,-188.95 73949.97,-188.95 73949.97,9520.44 62.16,9520.44 "/>
   </g>
   <g>
    <g>
    </g>
    <g style="clip-path:url(#id31)">
     <g>
      <path class="fil0" d="M16934.35 5912.5c135.6,-120.82 328.87,-78.03 494.23,-84.23 375.28,20.46 751.17,-10.54 1125.83,13.02l-9.92 75.55c-513.98,0.62 -1028.57,0 -1543.27,0 -108.93,228 -149.24,476.36 -128.16,727.92 83,60.05 166.61,117.72 255.18,169.7 161.03,-81.13 318.95,41.55 484.83,29.77 392.02,3.1 784.03,-4.34 1176.05,0.62 118.96,-8.68 213.63,74.93 313.99,125.16 0,369.18 -2.48,737.84 2.48,1107.01 -29.66,21.09 -89.2,63.77 -118.24,84.85 111.42,-323.39 93.43,-670.24 78.03,-1006.03 -7.44,-126.4 -94.15,-242.88 -226.03,-255.28 -598.93,-100.98 -1207.68,45.26 -1806.5,-55.71 -173.43,-25.43 -197.61,-227.38 -193.89,-369.18 8.06,-187.17 -35.25,-407.62 95.39,-563.17zm0 0z"/>
     </g>
    </g>
    <polygon class="fil1" points="62.16,-188.95 73949.97,-188.95 73949.97,9520.44 62.16,9520.44 "/>
   </g>
   <g>
    <g>
    </g>
    <g style="clip-path:url(#id32)">
     <g>
      <path class="fil0" d="M63763.22 5902.58c58.92,50.23 114,107.8 131.37,187.07 102.11,305.41 333.1,570.61 352.33,900.82 -170.95,-358.73 -372.8,-704.45 -483.7,-1087.89zm0 0z"/>
     </g>
    </g>
    <polygon class="fil1" points="62.16,-188.95 73949.97,-188.95 73949.97,9520.44 62.16,9520.44 "/>
   </g>
   <g>
    <g>
    </g>
    <g style="clip-path:url(#id33)">
     <g>
      <path class="fil0" d="M66793.43 5910.64c138.7,-9.92 276.26,16.13 412.48,44.65 -99.12,52.61 -401.94,95.4 -412.48,-44.65zm0 0z"/>
     </g>
    </g>
    <polygon class="fil1" points="62.16,-188.95 73949.97,-188.95 73949.97,9520.44 62.16,9520.44 "/>
   </g>
   <g>
    <g>
    </g>
    <g style="clip-path:url(#id34)">
     <g>
      <path class="fil0" d="M67246.73 5962.11c302.21,38.97 636.66,23.46 895.56,211.88 145.52,98.49 169.08,309.02 97.15,460.23 -56.95,178.38 -250.12,257.65 -414.86,305.4 -284.95,53.85 -587.77,56.33 -864.55,-34.72 -231.61,-82.38 -372.17,-295.49 -565.44,-433.57 -134.36,-54.57 -284.22,-38.45 -424.78,-52.71 182,-17.98 413,-93.53 556.14,63.77 174.56,186.55 373.41,381.06 636.55,421.89 200.71,4.34 403.18,9.92 604.51,-4.34 160.92,-59.43 309.03,-149.87 444.62,-254.56 -0.62,-114 0,-228 0.63,-342 -250.22,-229.23 -593.97,-276.26 -918.4,-271.3l-47.13 -69.97zm0 0z"/>
     </g>
    </g>
    <polygon class="fil1" points="62.16,-188.95 73949.97,-188.95 73949.97,9520.44 62.16,9520.44 "/>
   </g>
   <g>
    <g>
    </g>
    <g style="clip-path:url(#id35)">
     <g>
      <path class="fil0" d="M46439.84 6191.25c91.67,-44.55 114.62,-20.99 70.59,70.69 -92.3,44.54 -115.76,20.98 -70.59,-70.69zm0 0z"/>
     </g>
    </g>
    <polygon class="fil1" points="62.16,-188.95 73949.97,-188.95 73949.97,9520.44 62.16,9520.44 "/>
   </g>
   <g>
    <g>
    </g>
    <g style="clip-path:url(#id36)">
     <g>
      <path class="fil0" d="M69710.25 6167.16l50.23 -6.2c0,208.78 0,416.93 0.62,625.7l-60.67 -3.1c20.36,-205.05 28.42,-411.34 9.82,-616.4zm0 0z"/>
     </g>
    </g>
    <polygon class="fil1" points="62.16,-188.95 73949.97,-188.95 73949.97,9520.44 62.16,9520.44 "/>
   </g>
   <g>
    <g>
    </g>
    <g style="clip-path:url(#id37)">
     <g>
      <path class="fil0" d="M65055.14 6615.61c44.54,-81.13 99.01,-156.68 162.16,-224.89 -61.29,197.61 -102.12,408.86 -22.85,608.33 151.73,562.55 675.62,907.03 1169.86,1147.94 -166.61,6.82 -351.82,-35.24 -464.47,-164.74 -180.87,-193.89 -431.71,-313.47 -580.95,-537.75 -108.93,-269.44 -247.12,-534.02 -263.75,-828.89zm0 0z"/>
     </g>
    </g>
    <polygon class="fil1" points="62.16,-188.95 73949.97,-188.95 73949.97,9520.44 62.16,9520.44 "/>
   </g>
   <g>
    <g>
    </g>
    <g style="clip-path:url(#id38)">
     <g>
      <path class="fil0" d="M46177.22 6486.73c41.55,41.55 41.55,41.55 0,0zm0 0z"/>
     </g>
    </g>
    <polygon class="fil1" points="62.16,-188.95 73949.97,-188.95 73949.97,9520.44 62.16,9520.44 "/>
   </g>
   <g>
    <g>
    </g>
    <g style="clip-path:url(#id39)">
     <g>
      <path class="fil0" d="M55702.53 6474.43l66.35 -1.24c4.24,227.89 4.24,455.89 -0.62,683.27l-65.73 -0.62c-0.62,-227.38 -0.62,-454.76 0,-681.41zm0 0z"/>
     </g>
    </g>
    <polygon class="fil1" points="62.16,-188.95 73949.97,-188.95 73949.97,9520.44 62.16,9520.44 "/>
   </g>
   <g>
    <g>
    </g>
    <g style="clip-path:url(#id40)">
     <g>
      <path class="fil0" d="M771.51 7155.84l61.91 -0.62c-0.62,165.98 -1.86,332.07 -1.86,498.05l-60.05 -1.86c0,-165.36 0,-330.83 0,-495.57zm0 0z"/>
     </g>
    </g>
    <polygon class="fil1" points="62.16,-188.95 73949.97,-188.95 73949.97,9520.44 62.16,9520.44 "/>
   </g>
   <g>
    <g>
    </g>
    <g style="clip-path:url(#id41)">
     <g>
      <path class="fil0" d="M36132.35 7155.84l66.87 -1.24c3.72,208.15 4.96,416.3 0.62,625.08l-67.49 -4.35c0,-206.91 0,-413.2 0,-619.49zm0 0z"/>
     </g>
    </g>
    <polygon class="fil1" points="62.16,-188.95 73949.97,-188.95 73949.97,9520.44 62.16,9520.44 "/>
   </g>
   <g>
    <g>
    </g>
    <g style="clip-path:url(#id42)">
     <g>
      <path class="fil0" d="M20095.81 7880.03c52.71,108.42 70.59,276.26 212.5,303.55 152.96,32.24 310.88,18.6 466.32,22.94l1.24 64.39c-159.78,0 -319.56,0 -478.73,0 -67.49,-71.21 -136.84,-140.66 -207.53,-208.15 1.86,-45.89 4.96,-136.94 6.2,-182.73zm0 0z"/>
     </g>
    </g>
    <polygon class="fil1" points="62.16,-188.95 73949.97,-188.95 73949.97,9520.44 62.16,9520.44 "/>
   </g>
   <g>
    <g>
    </g>
    <g style="clip-path:url(#id43)">
     <g>
      <path class="fil0" d="M66402.03 8160.63c566.06,161.13 1172.95,183.97 1745.22,37.83l5.58 65.63c-319.57,118.96 -662.08,53.33 -994.67,70.59 -259.42,11.78 -542.5,-12.92 -756.13,-174.05zm0 0z"/>
     </g>
    </g>
    <polygon class="fil1" points="62.16,-188.95 73949.97,-188.95 73949.97,9520.44 62.16,9520.44 "/>
   </g>
   <g>
    <g>
    </g>
    <g style="clip-path:url(#id44)">
     <g>
      <path class="fil0" d="M68194.27 8186.06c34.11,-8.06 102.22,-23.57 136.84,-31.01 55.81,103.46 -170.32,162.37 -136.84,31.01zm0 0z"/>
     </g>
    </g>
    <polygon class="fil1" points="62.16,-188.95 73949.97,-188.95 73949.97,9520.44 62.16,9520.44 "/>
   </g>
   <g>
    <g>
    </g>
    <g style="clip-path:url(#id45)">
     <g>
      <path class="fil0" d="M21526.42 8210.24c26.67,0 79.89,0 106.56,0l0 48.89c-26.67,0 -80.51,0 -107.18,0l0.62 -48.89zm0 0z"/>
     </g>
    </g>
    <polygon class="fil1" points="62.16,-188.95 73949.97,-188.95 73949.97,9520.44 62.16,9520.44 "/>
   </g>
   <path class="fil2" d="M44513.86 2282.96c502.19,-11.79 1026.81,-66.98 1509.16,107.79 1086.23,347.48 1952.02,1321.37 2157.69,2445.13 28.42,405.76 30.29,815.86 -1.86,1221.63 -244.63,1276.09 -1338.93,2350.96 -2629.5,2536.79 -775.35,84.86 -1638.66,4.96 -2257.33,-516.04 186.34,-45.27 376.51,-74.93 566.58,-100.35 1172.95,-216.84 2209.06,-922.43 2952.79,-1839.89 35.35,193.27 63.15,387.78 88.57,583.53 235.96,-42.07 267.58,-306.65 294.15,-501.78 48.37,-288.04 33.48,-597.17 -95.92,-862.89 -175.9,-65.11 -372.27,-19.85 -555.52,-27.91 -304.68,18.61 -645.95,4.96 -904.23,191.41 -7.34,71.21 -0.62,144.28 17.98,214.36 269.44,100.35 559.86,68.73 841.6,73.69 -582.7,913.74 -1548.84,1539.44 -2581.13,1830.58 -318.33,82.37 -640.99,179.01 -972.34,171.05 -145.52,-62.63 -245.26,-195.23 -349.23,-308.51 -477.49,-578.05 -785.9,-1322.71 -749.41,-2080.28 -49.51,-1512.16 1177.91,-2928.92 2667.95,-3138.31zm0 0z"/>
   <path class="fil3" d="M7492.03 902.06c71.21,-633.14 958.08,-843.15 1387.83,-432.43 281.22,255.9 324.52,752.72 47.74,1027.74 -209.39,239.16 -541.25,315.95 -847.8,283.08l-52.71 -2.99c-318.95,-166.71 -611.23,-487.62 -535.06,-875.4zm0 0z"/>
   <path class="fil3" d="M25134.99 558.2c213.11,-284.94 607.51,-325.76 932.03,-258.27 265.72,73.07 429.23,315.94 535.06,554.48l0 51.37c-6.82,97.25 -7.44,195.13 -1.24,293l0 46.51c-179.52,373.52 -585.8,586.01 -995.18,536.41 -25.94,-1.25 -78.03,-4.86 -103.98,-6.72 -205.05,-145.01 -438.52,-306.03 -492.99,-568.75 -32.25,-219.94 -38.45,-476.36 126.3,-648.03zm0 0z"/>
   <path class="fil3" d="M841.48 2462.58c240.3,-227.37 580.33,-66.97 804.5,99.74 234.1,234.82 500.95,443.59 678.72,728.53 119.48,179.63 282.36,322.77 442.14,465.19 10.55,11.17 31.63,32.25 42.17,43.41 172.08,222.42 365.97,428.09 583.95,605.86 295.38,240.91 524.51,559.96 862.06,748.27 92.92,-813.38 19.85,-1634.21 53.23,-2450.7 -2.48,-187.69 193.27,-296.11 361.11,-294.87 380.86,-16.64 792,-61.28 1132.65,148.11l-3.1 70.59c-14.27,436.15 32.24,871.68 3.72,1307.1 -25.43,392.23 -8.68,785.59 11.78,1177.71 2.48,848.11 -13.02,1696.12 -9.92,2543.62 -6.2,163.5 16.12,348.81 -94.16,485.65 -130.01,61.39 -276.78,40.93 -414.23,31.63l-45.27 -21.71c-712.83,-639.96 -1327.16,-1386.99 -2075.85,-1987.89 -11.78,-11.16 -34.72,-33.48 -46.4,-44.65 -224.9,-241.63 -458.37,-475.73 -704.76,-695.66 -50.23,179.62 -81.14,364.83 -78.66,551.9 -2.48,539.61 -3.1,1079.21 -4.34,1618.82 0.62,174.66 -29.14,346.85 -63.15,517.9 -4.96,24.7 -14.88,74.31 -19.22,99.11 -392.64,-6.82 -784.65,6.2 -1176.67,-2.48 -71.21,4.96 -200.61,-27.9 -181.49,-120.82 -13.54,-29.76 -40.82,-88.57 -54.47,-117.72 -14.88,-104.69 -13.64,-210.63 -14.26,-315.95 0,-165.98 1.24,-332.07 1.86,-498.05 0,-247.22 0,-494.96 0,-742.18 0,-248.36 -3.72,-496.2 -1.24,-744.04 9.3,-1068.56 -11.78,-2138.47 9.3,-3206.42zm0 0z"/>
   <path class="fil3" d="M54486.27 2387.03c1086.24,-19.22 2175.58,35.25 3259.96,-34.72 214.87,48.88 435.32,16.12 653.39,21.08 180.77,-7.44 292.91,175.91 330.63,331.35 27.91,335.79 4.96,685.23 -141.18,994.36 -29.15,6.2 -87.33,17.98 -116.38,24.08 -8.68,1.24 -26.04,4.96 -35.34,6.2 -28.53,3.1 -85.47,8.68 -114.52,11.78 -317.08,31.01 -657.73,-144.9 -956.22,2.48 -190.17,218.08 -136.22,540.85 -154.82,809.05 14.26,929.86 -1.86,1859.73 14.88,2789.6 11.78,274.4 -22.94,547.66 -100.97,810.28l-60.67 5.58c-360.5,27.29 -735.15,84.86 -1088.1,-17.98 -192.65,-47.03 -211.77,-263.86 -213.63,-427.47 -5.58,-185.21 1.24,-371.03 4.96,-556.24 4.86,-227.38 4.86,-455.38 0.62,-683.27 -6.2,-267.68 -6.2,-535.26 0.62,-802.95 4.24,-270.68 2.48,-541.98 -1.24,-812.76 -0.62,-47.65 -0.62,-143.04 -0.62,-190.17 -2.48,-26.56 -7.44,-78.65 -9.92,-105.32 -60.77,-217.45 -59.53,-444.11 -59.53,-668.38 -47.65,-47.75 -94.67,-95.4 -141.18,-143.77 -356.67,-1.86 -713.96,-0.62 -1070.74,-2.48 -48.26,-48.88 -96.63,-97.25 -144.9,-144.9 -2.48,-356.87 -1.86,-713.65 0,-1070.53 47.65,-48.26 96.02,-96.63 144.9,-144.9zm0 0z"/>
   <path class="fil3" d="M31538.52 2360.37c75.56,10.54 151.73,21.7 227.9,35.24 284.84,77.52 592,-43.92 867.54,72.55 169.09,63.77 145.63,266.97 151.72,413.21l-1.24 50.13c-34,615.77 -45.16,1287.36 -424.16,1807.12 -164.12,250.22 -437.18,414.96 -566.68,688.85l0.62 40.82c16.12,247.84 190.17,441.11 302.82,651.74 312.13,551.39 702.91,1055.65 977.31,1628.64 56.95,120.82 80.51,252.8 107.07,382.82 -416.1,58.91 -839.74,82.47 -1259.56,51.47 -218.07,-15.5 -374.14,-188.31 -487.41,-358.74 -361.01,-540.74 -622.39,-1141.64 -969.87,-1689.3 -180.76,-292.39 -769.77,-167.85 -711.48,210.01 6.83,497.44 4.96,994.26 -1.86,1491.07 -4.34,129.5 -42.16,306.65 -197.61,322.15 -319.56,72.45 -653.29,47.13 -977.2,26.05 -237.81,-5.58 -252.08,-289.91 -279.36,-467.78 -42.69,-763.77 -3.72,-1530.14 -25.32,-2295.15 -1.24,-81.76 -1.24,-164.23 0,-245.98 10.54,-802.23 -1.24,-1605.69 4.96,-2407.92 -10.54,-221.79 205.57,-399.56 421.06,-375.38 335.69,11.06 704.14,-8.06 1005.72,162.89 81.14,131.36 47.13,299.82 55.82,447.93 -20.47,415.58 7.95,830.65 7.95,1246.33 7.44,117.72 -1.24,296.73 142.53,334.55 482.96,86.1 1008.82,-171.56 1213.77,-622.59 168.47,-398.32 127.54,-840.06 177.15,-1259.46 13.54,-148.62 147.38,-237.82 237.81,-341.27zm0 0z"/>
   <g>
    <path class="fil3" d="M61276.76 2710.94c132.6,-180.25 302.2,-400.18 556.14,-367.94 195.75,-3.72 318.95,168.47 437.29,299.21l15.4 37.83c252.08,677.06 590.87,1317.02 878.81,1978.59 209.91,397.08 348.71,827.65 585.8,1210.46l13.02 33.49c110.9,383.44 312.75,729.16 483.7,1087.89l14.26 32.77c148,362.45 353.57,710.55 384.57,1110.11 -99.73,21.7 -196.99,44.65 -295.38,63.87 -273.16,24.08 -548.08,13.02 -821.24,16.12 -269.96,-109.65 -399.46,-369.28 -553.66,-594.79 -144.9,-209.39 -423.54,-174.05 -644.61,-176.53 -501.06,21.09 -1006.35,-50.74 -1504.3,24.19 -286.7,119.58 -400.08,445.45 -553.05,691.94l-53.84 0.62c-423.54,11.17 -847.81,25.43 -1270.21,-16.12 3.1,-180.25 22.33,-362.97 107.18,-524.72 290.42,-622.6 584.67,-1243.23 857.72,-1873.27 229.14,-494.34 477.49,-980.1 696.71,-1479.4 201.22,-513.56 490.51,-991.15 654.01,-1520.83l11.68 -33.49 0 0zm380.86 2342.91c-138.7,335.17 -328.77,657.94 -372.8,1023.4 260.76,33.48 524,70.07 787.76,62.01 87.95,9.92 148.62,-55.81 207.43,-110.9l40.93 -12.4c-104.08,-357.4 -242.78,-709.31 -427.37,-1032.7 -66.25,-112.14 -209.91,-27.29 -235.95,70.59z"/>
   </g>
   <path class="fil3" d="M66751.98 2394.37c39.59,-3.62 118.24,-10.44 157.93,-13.54 268.09,-16.12 537.53,-35.34 806.25,-13.64 510.36,46.4 996.43,281.22 1363.74,636.86 188.21,201.95 297.87,460.23 429.12,700.63l1.86 47.02c3.1,151.83 10.55,336.42 -151.1,413.21 -173.42,37.83 -352.95,17.36 -528.23,22.32 -31.01,0.62 -92.92,1.24 -123.92,1.24 -156.07,-9.3 -345.51,33.49 -465.71,-91.67 -176.43,-169.19 -341.79,-389.64 -606.27,-410.1 -19.22,-3.11 -57.57,-10.55 -76.17,-14.27 -177.05,-36.58 -364.73,-55.7 -537.54,6.2l-35.24 12.41c-174.05,69.97 -381.48,178.38 -403.8,387.16 -11.79,150.58 -37.83,348.19 108.31,444.83 458.99,347.47 1070.22,243.39 1599.7,371.65 386.43,111.52 812.45,219.94 1075.69,550.15 186.35,180.25 264.38,431.71 335.07,673.34l8.58 48.99c18.6,205.06 10.54,411.35 -9.82,616.4l-6.2 48.27c-103.45,319.67 -241.53,647.4 -517.18,856.17 -248.87,182.11 -519.55,333.83 -800.67,458.99l-45.27 8.06c-34.62,7.44 -102.73,22.95 -136.84,31.01l-47.02 12.4c-572.27,146.14 -1179.16,123.3 -1745.22,-37.83l-37.72 -13.64c-494.24,-240.91 -1018.13,-585.39 -1169.86,-1147.94 -79.27,-199.47 -38.44,-410.72 22.85,-608.33 249.59,31.62 501.05,16.74 752.51,27.9 140.56,14.26 290.42,-1.86 424.78,52.71 193.27,138.08 333.83,351.19 565.44,433.57 276.78,91.05 579.6,88.57 864.55,34.72 164.74,-47.75 357.91,-127.02 414.86,-305.4 71.93,-151.21 48.37,-361.74 -97.15,-460.23 -258.9,-188.42 -593.35,-172.91 -895.56,-211.88l-40.82 -6.82c-136.22,-28.52 -273.78,-54.57 -412.48,-44.65l-45.79 -0.62c-492.37,-115.24 -1017.51,-319.05 -1307.31,-758.19 -70.59,-100.98 -135.08,-206.3 -196.99,-312.23l-8.68 -43.41c-48.89,-274.4 -61.29,-553.87 -70.59,-831.99 5.58,-31.63 16.12,-94.16 21.08,-125.78 100.36,-263.24 187.59,-540.75 375.28,-757.58 309.64,-351.3 750.55,-554.49 1191.55,-686.47zm0 0z"/>
   <path class="fil3" d="M6920.49 2647.17c3.1,-204.43 248.26,-253.94 410.52,-235.44 683.06,43.41 1367.46,-44.54 2049.9,3.1 155.44,4.35 290.42,142.53 297.86,297.35 17.37,235.44 18.61,473.98 -8.68,709.31 -15.5,128.26 -151.1,184.69 -241.53,255.9l-49.51 9.31c-113.38,31 -291.04,22.94 -322.05,168.46 -56.32,270.78 -43.3,549.53 -50.12,824.55 -1.24,81.13 -1.24,162.99 -1.86,244.74 12.3,413.2 19.12,827.03 9.92,1240.23 5.48,208.78 -25.43,426.75 48.26,627.46 234.1,102.83 500.96,123.3 709.73,284.43 -35.97,302.3 -30.39,608.95 -2.48,911.88 -134.46,94.15 -266.34,231.1 -446.49,197.61 -483.69,-48.37 -968,1.24 -1452.93,5.58 -21.6,0 -65.63,0.62 -87.95,1.24 -266.86,-28.53 -536.92,-14.26 -801.92,-56.43 -176.53,-180.25 -131.98,-448.45 -128.88,-677.07 16.74,-148.1 -7.96,-319.05 92.29,-442.35 182.11,-110.27 392.64,-157.92 592.73,-224.89 34.63,-185.83 58.81,-373.52 53.85,-563.07 -9.92,-641.82 -9.3,-1284.16 -11.78,-1925.98 -6.82,-172.8 -1.86,-361.22 -97.26,-512.94 -165.36,-93.53 -366.59,-109.04 -520.17,-224.89 -79.27,-295.49 -54.47,-614.54 -41.45,-918.09zm0 0z"/>
   <path class="fil3" d="M10512.31 2447.08c234.72,-69.97 484.32,-39.07 725.85,-44.65 992.09,0 1984.17,9.92 2975.63,-1.24 181.49,-14.78 379.62,99.12 388.92,296.21 27.29,364.84 66.25,778.66 -208.05,1066.09 -46.4,-3.72 -138.7,-11.17 -184.59,-14.89 -263.13,-7.44 -525.75,-88.57 -788.27,-43.92 -153.58,41.44 -177.15,221.79 -206.29,353.05 5.58,1279.92 6.2,2559.74 1.24,3839.04 13.64,205.68 -176.42,333.83 -367.21,312.23 -372.8,-23.56 -782.18,86.1 -1118.49,-122.06 1.86,-1379.03 4.96,-2758.59 -0.62,-4137.63 -35.86,-99.73 -83.51,-214.97 -202.47,-231.61 -354.19,-71.93 -719.64,25.94 -1073.21,-39.07 -171.57,-231.09 -112.76,-534.02 -118.34,-800.98 8.68,-152.45 5.58,-365.56 175.9,-430.57zm0 0z"/>
   <path class="fil3" d="M15399.77 2705.98c-19.85,-198.85 177.76,-310.37 353.57,-303.55 600.17,-4.34 1200.86,5.58 1800.92,11.78 423.03,0 855.25,-42.68 1270.21,58.3 106.45,21.08 131.88,142.42 143.04,233.47 31,255.9 40.82,518.52 -3.72,773.8 -25.43,136.95 -163.51,221.8 -296,222.42 -535.06,31.52 -1075.08,-35.97 -1606.42,53.84 -86.09,14.89 -199.47,47.13 -214.97,147.49 -34.63,196.99 -32.14,419.41 76.79,594.07 529.58,123.92 1077.56,12.4 1613.34,60.67 164.64,0 261.27,158.03 271.82,306.03 32.24,338.89 12.4,690.81 -120.1,1008.51 -33.49,-7.95 -100.36,-23.46 -133.84,-31.52 -374.66,-23.56 -750.55,7.44 -1125.83,-13.02 -165.36,6.2 -358.63,-36.59 -494.23,84.23 -130.64,155.55 -87.33,376 -95.39,563.17 -3.72,141.8 20.46,343.75 193.89,369.18 598.82,100.97 1207.57,-45.27 1806.5,55.71 131.88,12.4 218.59,128.88 226.03,255.28 15.4,335.79 33.39,682.64 -78.03,1006.03l-68.73 4.97c-556.76,47.74 -1116,15.5 -1673.38,12.4 -476.25,-23.57 -951.88,31 -1427.41,13.02 -110.28,-3.72 -220.55,-36.59 -309.64,-100.98 -114.62,-114.61 -107.8,-289.9 -115.86,-439.25 8.06,-1648.47 -3.1,-3297.57 7.44,-4946.05zm0 0z"/>
   <path class="fil3" d="M20359.67 2444.6c300.97,-33.49 607.51,-32.25 910.33,-30.39 205.06,6.83 288.57,228.62 281.23,404.53 32.76,1177.7 13.54,2356.55 8.58,3534.25 -0.62,133.74 8.68,270.68 67.59,393.98l14.16 32.87c9.92,19.74 29.14,59.43 39.06,79.89 569.79,-2.48 1139.47,45.79 1709.25,15.5 124.44,-9.92 229.76,92.3 252.08,211.26 65.63,274.4 28.42,560.58 41.45,839.95l0 43.4c-103.46,48.27 -180.87,136.33 -239.06,231.72 -603.79,14.88 -1208.19,5.58 -1811.36,8.68 -26.67,0 -79.89,0 -106.56,0 -250.83,6.2 -501.67,-3.72 -751.79,-3.72 -155.44,-4.34 -313.36,9.3 -466.32,-22.94 -141.91,-27.29 -159.79,-195.13 -212.5,-303.55 -4.34,-731.01 -8.06,-1463.89 4.34,-2195.52 14.27,-232.24 18.61,-465.82 11.79,-698.77 -27.81,-743.42 7.44,-1487.97 -1.25,-2231.39 -10.54,-158.54 86.72,-293.01 248.98,-309.75zm0 0z"/>
   <path class="fil3" d="M24338.03 2673.84c112.66,-109.04 215.49,-280.09 396.26,-257.76 722.75,31.62 1447.35,-59.43 2169.38,5.58 123.92,11.78 232.85,96.01 253.93,223.03 45.27,259.62 34.11,528.44 1.24,788.58 -15.5,139.43 -168.46,184.7 -267.47,252.81 -52.09,15.5 -102.84,31 -154.21,45.78 -90.43,32.25 -229.75,45.27 -218.07,172.29 -78.03,709.31 0,1424.82 -27.18,2136.61 8.06,247.12 -34.73,505.5 45.16,744.66 132.5,121.96 328.87,104.7 495.48,120.1l73.07 1.86c148,306.02 150.48,655.46 112.03,986.91 -19.12,144.28 -148,234.1 -236.57,337.55 -97.78,-14.16 -195.65,-26.56 -292.91,-40.82 -245.25,-46.51 -497.85,-42.17 -741.86,9.3l-52.09 6.82c-466.33,-51.47 -936.9,-31.62 -1405.08,-49.61l-65.12 -0.62c-110.17,-352.43 -121.33,-737.83 -30.28,-1094.61 172.19,-161.12 440.28,-159.26 615.57,-310.99 81.75,-182.72 69.97,-389.64 68.73,-584.77 -33.49,-641.82 -20.46,-1284.26 -19.22,-1926.08 -4.34,-145.52 -2.48,-299.21 -67.49,-432.95 -96.02,-115.85 -261.9,-109.65 -398.22,-107.79l-72.45 2.48c-125.68,-285.05 -116.38,-599.04 -157.3,-901.96 -6.21,-31.63 -18.61,-94.88 -25.33,-126.4zm0 0z"/>
   <path class="fil3" d="M36180.1 2730.78c56.95,-127.64 113.28,-284.32 265.62,-324.01 282.46,-3.1 526.99,177.25 710.96,376.1 525.14,528.45 1042.94,1064.85 1578.61,1582.75 301.59,252.8 538.16,582.39 884.91,780 94.78,-809.77 24.81,-1626.25 53.85,-2439.02 3.1,-179.63 182.73,-317.09 356.15,-309.13 290.42,-7.96 582.09,-9.82 873.23,5.58 150.48,12.4 242.67,160.51 254.46,300.45 41.54,595.42 9.92,1191.97 5.58,1787.9 40.92,1095.85 3.72,2192.42 9.3,3288.28 -19.23,133.73 17.36,356.15 -161.65,382.81 -219.21,83 -450.82,-45.78 -607.5,-194.51 -671.9,-686.98 -1347,-1372.83 -2060.34,-2017.03 -11.16,-14.26 -32.87,-42.79 -43.41,-57.05 -59.43,-90.43 -136.22,-169.09 -228.51,-225.52 -14.89,-11.06 -45.17,-34 -60.05,-45.78 -71.83,-62.53 -141.8,-125.78 -215.49,-183.97 -74.31,168.46 -96.02,353.67 -94.16,537.02 -0.62,517.9 -1.24,1035.8 1.86,1554.32 -1.86,204.44 -4.34,421.27 -105.31,605.86 -296.63,105.32 -619.29,11.78 -925.84,64.49 -76.79,6.2 -152.34,13.64 -227.89,22.22 -85.47,-87.33 -169.09,-175.28 -249.6,-265.1 1.24,-44.54 3.72,-133.84 4.96,-177.76 4.34,-208.78 3.1,-416.93 -0.62,-625.08 -4.34,-164.75 -3.72,-328.97 0.62,-493.1 5.58,-331.45 4.34,-663.52 0,-994.98 -19.74,-978.13 16.13,-1957.5 -19.74,-2935.74zm0 0z"/>
   <path class="fil3" d="M49117.61 2816.88c-11.06,-193.27 124.54,-399.56 327.01,-414.45 284.32,-15.4 570.4,9.92 850.28,62.01 122.06,25.43 284.94,78.04 278.74,232.96 23.46,391.5 -4.34,784.24 8.06,1176.36 9.82,232.34 -23.56,483.8 90.33,696.91 379,105.94 830.55,-19.84 1077.56,-335.79 9.92,-11.06 29.77,-32.14 39.07,-42.69 322.05,-327.11 293.52,-828.27 318.94,-1252.63 -1.24,-78.65 0,-156.07 3.73,-234.2 55.7,-131.88 139.94,-298.59 305.3,-301.07 269.96,8.06 540.64,18.61 811.84,12.41 146.76,4.96 361.73,48.36 375.99,229.23 19.12,304.79 -3.1,611.44 -6.82,916.85 -2.48,24.8 -7.44,74.93 -9.92,100.35 -95.39,405.14 -177.15,838.19 -461.99,1160.34 -152.96,216.84 -408.76,358.64 -511.59,608.34 2.48,253.32 195.13,453.41 302.82,671.48 350.57,644.92 865.17,1211.71 1083.76,1921.64 -9.2,23.57 -28.42,70.07 -37.72,92.92 -211.77,87.43 -451.45,52.71 -675.62,75.03 -290.53,-7.44 -640.38,63.15 -865.79,-169.19 -224.17,-247.12 -365.97,-554.38 -547.46,-831.89l-16.12 -30.38c-168.47,-343.86 -352.95,-680.79 -544.36,-1011.62 -177.77,-298.59 -795.2,-196.37 -731.95,196.99 10.44,497.44 12.92,994.88 0,1492.31 -10.54,133.23 -48.37,315.95 -213.11,326.49 -341.79,56.33 -697.94,52.09 -1040.35,5.59 -189.55,-124.54 -195.75,-374.76 -204.43,-577.33 -4.96,-1592.77 -2.48,-3184.82 -6.2,-4776.97zm0 0z"/>
   <path class="fil3" d="M70530.25 2650.27c19.85,-196.37 235.34,-252.18 402.56,-234.19 663.22,29.76 1325.92,-42.69 1989.13,-7.45 151.1,3.1 336.93,70.08 357.91,243.5 52.09,296.73 8.68,599.04 -6.82,897.62 -85.37,37.83 -170.84,75.55 -256.31,110.28 -19.23,6.82 -58.91,21.08 -78.04,27.91 -114.61,43.3 -282.46,57.56 -279.98,214.97 -94.05,667.14 -5.58,1343.07 -32.76,2013.93 19.22,289.91 -48.99,592.22 45.78,872.82 198.86,132.6 517.18,58.91 649.68,283.19 63.77,283.7 47.03,582.91 21.08,870.95 -8.68,176.53 -197.61,273.88 -356.77,256.52 -301.58,-14.88 -605.65,-70.07 -904.13,1.86l-50.85 6.82c-478.01,-70.69 -966.66,-0.62 -1443.53,-72.55 -99.11,-115.86 -138.7,-268.2 -129.4,-418.17 9.3,-232.85 -6.2,-479.45 91.06,-697.52 180.76,-104.7 392.01,-141.18 575.26,-242.16 34.73,-84.96 48.37,-176.63 59.43,-267.68 9.92,-362.36 -4.34,-726.06 1.24,-1089.03 0.62,-351.92 -4.96,-703.73 -4.96,-1055.03 -2.48,-197.61 2.48,-405.76 -92.19,-585.39 -102.22,-81.75 -239.06,-78.03 -361.74,-77.41l-69.97 1.24c-163.5,-324.63 -159.78,-701.87 -125.68,-1055.03zm0 0z"/>
  </g>
 </g>
</svg>
