<?xml version="1.0" encoding="UTF-8"?>
<!DOCTYPE svg PUBLIC "-//W3C//DTD SVG 1.1//EN" "http://www.w3.org/Graphics/SVG/1.1/DTD/svg11.dtd">
<!-- Creator: CorelDRAW -->
<svg xmlns="http://www.w3.org/2000/svg" xml:space="preserve" width="74mm" height="75mm" version="1.1" style="shape-rendering:geometricPrecision; text-rendering:geometricPrecision; image-rendering:optimizeQuality; fill-rule:evenodd; clip-rule:evenodd"
viewBox="0 0 7400 7500"
 xmlns:xlink="http://www.w3.org/1999/xlink"
 xmlns:xodm="http://www.corel.com/coreldraw/odm/2003">
 <defs>
  <style type="text/css">
   <![CDATA[
    .fil1 {fill:none}
    .fil0 {fill:#B1ABAB;fill-rule:nonzero}
    .fil2 {fill:#FF3131;fill-rule:nonzero}
   ]]>
  </style>
     <clipPath id="id0">
      <path d="M163.57 165.6l7052.66 0 0 7121.13 -7052.66 0 0 -7121.13z"/>
     </clipPath>
     <clipPath id="id1">
      <path d="M163.57 165.6l7052.66 0 0 7121.13 -7052.66 0 0 -7121.13z"/>
     </clipPath>
     <clipPath id="id2">
      <path d="M163.57 165.6l7052.66 0 0 7121.13 -7052.66 0 0 -7121.13z"/>
     </clipPath>
     <clipPath id="id3">
      <path d="M163.57 165.6l7052.66 0 0 7121.13 -7052.66 0 0 -7121.13z"/>
     </clipPath>
     <clipPath id="id4">
      <path d="M163.57 165.6l7052.66 0 0 7121.13 -7052.66 0 0 -7121.13z"/>
     </clipPath>
     <clipPath id="id5">
      <path d="M163.57 165.6l7052.66 0 0 7121.13 -7052.66 0 0 -7121.13z"/>
     </clipPath>
     <clipPath id="id6">
      <path d="M163.57 165.6l7052.66 0 0 7121.13 -7052.66 0 0 -7121.13z"/>
     </clipPath>
     <clipPath id="id7">
      <path d="M163.57 165.6l7052.66 0 0 7121.13 -7052.66 0 0 -7121.13z"/>
     </clipPath>
     <clipPath id="id8">
      <path d="M163.57 165.6l7052.66 0 0 7121.13 -7052.66 0 0 -7121.13z"/>
     </clipPath>
     <clipPath id="id9">
      <path d="M163.57 165.6l7052.66 0 0 7121.13 -7052.66 0 0 -7121.13z"/>
     </clipPath>
     <clipPath id="id10">
      <path d="M163.57 165.6l7052.66 0 0 7121.13 -7052.66 0 0 -7121.13z"/>
     </clipPath>
     <clipPath id="id11">
      <path d="M163.57 165.6l7052.66 0 0 7121.13 -7052.66 0 0 -7121.13z"/>
     </clipPath>
     <clipPath id="id12">
      <path d="M163.57 165.6l7052.66 0 0 7121.13 -7052.66 0 0 -7121.13z"/>
     </clipPath>
     <clipPath id="id13">
      <path d="M163.57 165.6l7052.66 0 0 7121.13 -7052.66 0 0 -7121.13z"/>
     </clipPath>
     <clipPath id="id14">
      <path d="M163.57 165.6l7052.66 0 0 7121.13 -7052.66 0 0 -7121.13z"/>
     </clipPath>
     <clipPath id="id15">
      <path d="M163.57 165.6l7052.66 0 0 7121.13 -7052.66 0 0 -7121.13z"/>
     </clipPath>
     <clipPath id="id16">
      <path d="M163.57 165.6l7052.66 0 0 7121.13 -7052.66 0 0 -7121.13z"/>
     </clipPath>
     <clipPath id="id17">
      <path d="M163.57 165.6l7052.66 0 0 7121.13 -7052.66 0 0 -7121.13z"/>
     </clipPath>
     <clipPath id="id18">
      <path d="M163.57 165.6l7052.66 0 0 7121.13 -7052.66 0 0 -7121.13z"/>
     </clipPath>
     <clipPath id="id19">
      <path d="M163.57 165.6l7052.66 0 0 7121.13 -7052.66 0 0 -7121.13z"/>
     </clipPath>
     <clipPath id="id20">
      <path d="M163.57 165.6l7052.66 0 0 7121.13 -7052.66 0 0 -7121.13z"/>
     </clipPath>
     <clipPath id="id21">
      <path d="M163.57 165.6l7052.66 0 0 7121.13 -7052.66 0 0 -7121.13z"/>
     </clipPath>
     <clipPath id="id22">
      <path d="M163.57 165.6l7052.66 0 0 7121.13 -7052.66 0 0 -7121.13z"/>
     </clipPath>
     <clipPath id="id23">
      <path d="M163.57 165.6l7052.66 0 0 7121.13 -7052.66 0 0 -7121.13z"/>
     </clipPath>
     <clipPath id="id24">
      <path d="M163.57 165.6l7052.66 0 0 7121.13 -7052.66 0 0 -7121.13z"/>
     </clipPath>
     <clipPath id="id25">
      <path d="M163.57 165.6l7052.66 0 0 7121.13 -7052.66 0 0 -7121.13z"/>
     </clipPath>
     <clipPath id="id26">
      <path d="M163.57 165.6l7052.66 0 0 7121.13 -7052.66 0 0 -7121.13z"/>
     </clipPath>
     <clipPath id="id27">
      <path d="M163.57 165.6l7052.66 0 0 7121.13 -7052.66 0 0 -7121.13z"/>
     </clipPath>
     <clipPath id="id28">
      <path d="M163.57 165.6l7052.66 0 0 7121.13 -7052.66 0 0 -7121.13z"/>
     </clipPath>
     <clipPath id="id29">
      <path d="M163.57 165.6l7052.66 0 0 7121.13 -7052.66 0 0 -7121.13z"/>
     </clipPath>
     <clipPath id="id30">
      <path d="M163.57 165.6l7052.66 0 0 7121.13 -7052.66 0 0 -7121.13z"/>
     </clipPath>
     <clipPath id="id31">
      <path d="M163.57 165.6l7052.66 0 0 7121.13 -7052.66 0 0 -7121.13z"/>
     </clipPath>
     <clipPath id="id32">
      <path d="M163.57 165.6l7052.66 0 0 7121.13 -7052.66 0 0 -7121.13z"/>
     </clipPath>
     <clipPath id="id33">
      <path d="M163.57 165.6l7052.66 0 0 7121.13 -7052.66 0 0 -7121.13z"/>
     </clipPath>
     <clipPath id="id34">
      <path d="M163.57 165.6l7052.66 0 0 7121.13 -7052.66 0 0 -7121.13z"/>
     </clipPath>
     <clipPath id="id35">
      <path d="M163.57 165.6l7052.66 0 0 7121.13 -7052.66 0 0 -7121.13z"/>
     </clipPath>
     <clipPath id="id36">
      <path d="M163.57 165.6l7052.66 0 0 7121.13 -7052.66 0 0 -7121.13z"/>
     </clipPath>
     <clipPath id="id37">
      <path d="M163.57 165.6l7052.66 0 0 7121.13 -7052.66 0 0 -7121.13z"/>
     </clipPath>
     <clipPath id="id38">
      <path d="M163.57 165.6l7052.66 0 0 7121.13 -7052.66 0 0 -7121.13z"/>
     </clipPath>
     <clipPath id="id39">
      <path d="M163.57 165.6l7052.66 0 0 7121.13 -7052.66 0 0 -7121.13z"/>
     </clipPath>
     <clipPath id="id40">
      <path d="M163.57 165.6l7052.66 0 0 7121.13 -7052.66 0 0 -7121.13z"/>
     </clipPath>
     <clipPath id="id41">
      <path d="M163.57 165.6l7052.66 0 0 7121.13 -7052.66 0 0 -7121.13z"/>
     </clipPath>
     <clipPath id="id42">
      <path d="M163.57 165.6l7052.66 0 0 7121.13 -7052.66 0 0 -7121.13z"/>
     </clipPath>
     <clipPath id="id43">
      <path d="M163.57 165.6l7052.66 0 0 7121.13 -7052.66 0 0 -7121.13z"/>
     </clipPath>
     <clipPath id="id44">
      <path d="M163.57 165.6l7052.66 0 0 7121.13 -7052.66 0 0 -7121.13z"/>
     </clipPath>
     <clipPath id="id45">
      <path d="M163.57 165.6l7052.66 0 0 7121.13 -7052.66 0 0 -7121.13z"/>
     </clipPath>
 </defs>
 <g id="Katman_x0020_1">
  <metadata id="CorelCorpID_0Corel-Layer"/>
  <g id="surface1">
   <g>
    <g>
    </g>
    <g style="clip-path:url(#id0)">
     <g>
      <path class="fil0" d="M-33540.02 -1417.23c248.36,-196.37 580.33,-166.6 876.33,-143.04 240.29,61.91 361.63,270.69 510.87,446.59 23.57,170.43 109.66,340.76 59.43,513.56 -71.21,154.93 -159.78,301.07 -258.8,439.87 -250.83,167.23 -550.56,239.16 -849.66,203.81l3.1 -48.99c306.55,32.87 638.41,-43.92 847.8,-283.08 276.78,-275.02 233.48,-771.84 -47.74,-1027.74 -429.75,-410.72 -1316.62,-200.71 -1387.83,432.43 -76.17,387.78 216.11,708.69 535.06,875.4 -280.5,-31.01 -500.95,-254.66 -567.82,-518.52 -20.46,-310.37 -30.38,-714.9 279.26,-890.29zm0 0z"/>
     </g>
    </g>
    <polygon class="fil1" points="163.57,165.6 7216.23,165.6 7216.23,7286.73 163.57,7286.73 "/>
   </g>
   <g>
    <g>
    </g>
    <g style="clip-path:url(#id1)">
     <g>
      <path class="fil0" d="M-14676.47 -880.1c104.7,-5.58 105.32,302.93 -1.24,293 -6.2,-97.87 -5.58,-195.75 1.24,-293zm0 0z"/>
     </g>
    </g>
    <polygon class="fil1" points="163.57,165.6 7216.23,165.6 7216.23,7286.73 163.57,7286.73 "/>
   </g>
   <g>
    <g>
    </g>
    <g style="clip-path:url(#id2)">
     <g>
      <path class="fil0" d="M-15672.89 -4.18c409.38,49.6 815.66,-162.89 995.18,-536.41 15.5,333.21 -338.69,454.03 -583.94,572.99 -136.22,26.05 -276.26,7.44 -413.1,11.16l1.86 -47.74zm0 0z"/>
     </g>
    </g>
    <polygon class="fil1" points="163.57,165.6 7216.23,165.6 7216.23,7286.73 163.57,7286.73 "/>
   </g>
   <g>
    <g>
    </g>
    <g style="clip-path:url(#id3)">
     <g>
      <g>
       <path class="fil0" d="M2289.01 723.11c279.98,-183.35 619.91,-218.59 935.75,-308.51 364.74,-3.72 730.81,-3.1 1096.17,0 340.03,109.66 699.8,176.01 1013.16,354.4 190.07,168.46 450.21,244.74 623.01,433.05 113.9,191.41 288.57,331.97 434.71,496.81 275.02,364.22 440.28,794.79 572.88,1227.22 45.17,106.55 26.56,223.65 30.28,335.79 -7.44,349.33 3.72,698.77 -2.48,1047.48 -121.33,219.94 -94.05,485.76 -242.05,692.05 -152.96,222.93 -243.4,486.28 -441.63,676.45 -409.27,593.45 -1076.31,939.16 -1737.67,1178.22 -322.05,-42.07 -634.79,140.66 -951.26,35.34 -168.46,-53.22 -346.85,-24.8 -519.55,-35.34 -423.65,-95.4 -854.63,-224.79 -1182.88,-523.48 -1.86,-20.98 -5.58,-64.39 -7.44,-85.48 146.76,-99.11 324.53,-66.87 491.14,-83.61 554.9,-97.25 1103.49,-277.5 1577.88,-588.49 245.26,-138.18 511.6,-256.52 700.43,-473.87 107.17,-122.68 240.29,-215.6 369.79,-312.23 160.3,-219.32 332.49,-446.69 579.61,-574.33 21.7,207.53 -62.53,454.75 106.55,619.49 162.89,-371.03 191.93,-794.16 62.53,-1179.46 -170.94,-35.35 -344.37,-120.82 -520.17,-62.01 -267.58,109.04 -652.16,-61.91 -829.93,229.85 22.33,27.91 66.25,83.62 88.58,111.52 268.2,45.27 554.9,-49.61 810.08,66.25 -113.38,164.23 -237.2,319.67 -364.22,472.74 -249.49,372.27 -655.77,587.25 -984.64,879.01 -237.2,74.93 -427.88,239.78 -654.54,336.42 -444.72,157.92 -892.45,322.77 -1366.22,369.79 -91.67,4.34 -177.76,32.87 -261.89,63.26 -94.16,-49.61 -190.17,-94.88 -281.85,-146.87 -173.42,-219.93 -357.29,-432.43 -516.45,-662.28 -170.95,-315.23 -266.96,-663.43 -361.63,-1006.66 -21.71,-319.05 -120.2,-636.76 -51.47,-957.67 41.54,-127.02 44.65,-260.24 46.51,-391.5 214.25,-947.85 858.34,-1804.02 1738.91,-2233.35l0 0zm946.3 -226.03c-1490.04,209.39 -2717.46,1626.15 -2667.95,3138.31 -36.49,757.57 271.92,1502.23 749.41,2080.28 103.97,113.28 203.71,245.88 349.23,308.51 331.35,7.96 654.01,-88.68 972.34,-171.05 1032.29,-291.14 1998.43,-916.84 2581.13,-1830.58 -281.74,-4.96 -572.16,26.66 -841.6,-73.69 -18.6,-70.08 -25.32,-143.15 -17.98,-214.36 258.28,-186.45 599.55,-172.8 904.23,-191.41 183.25,8.06 379.62,-37.2 555.52,27.91 129.4,265.72 144.29,574.85 95.92,862.89 -26.57,195.13 -58.19,459.71 -294.15,501.78 -25.42,-195.75 -53.22,-390.26 -88.57,-583.53 -743.73,917.46 -1779.84,1623.05 -2952.79,1839.89 -190.07,25.42 -380.24,55.08 -566.58,100.35 618.67,521 1481.98,600.9 2257.33,516.04 1290.57,-185.83 2384.87,-1260.7 2629.5,-2536.79 32.15,-405.77 30.28,-815.87 1.86,-1221.63 -205.67,-1123.76 -1071.46,-2097.65 -2157.69,-2445.13 -482.35,-174.77 -1006.97,-119.58 -1509.16,-107.79z"/>
      </g>
     </g>
    </g>
    <polygon class="fil1" points="163.57,165.6 7216.23,165.6 7216.23,7286.73 163.57,7286.73 "/>
   </g>
   <g>
    <g>
    </g>
    <g style="clip-path:url(#id4)">
     <g>
      <path class="fil0" d="M19998.21 925.06c-30.28,-274.4 286.19,-390.88 501.06,-451.55 209.91,11.78 492.37,146.14 492.37,382.82 -118.34,-130.74 -241.54,-302.93 -437.29,-299.21 -253.94,-32.24 -423.54,187.69 -556.14,367.94zm0 0z"/>
     </g>
    </g>
    <polygon class="fil1" points="163.57,165.6 7216.23,165.6 7216.23,7286.73 163.57,7286.73 "/>
   </g>
   <g>
    <g>
    </g>
    <g style="clip-path:url(#id5)">
     <g>
      <path class="fil0" d="M-12752.97 541c413.72,167.33 943.82,-105.94 1291.29,250.32 6.82,608.34 -16.74,1218.53 12.4,1825.63 152.35,273.78 465.09,84.85 697.95,60.05 193.78,-108.42 363.49,-255.8 502.81,-428.71 122.06,-229.76 121.44,-498.68 179.01,-747.66 58.8,-227.37 14.88,-463.43 34.62,-694.43 52.71,-153.06 211.25,-213.11 340.65,-288.14l-45.79 56.43c-90.43,103.45 -224.27,192.65 -237.81,341.27 -49.61,419.4 -8.68,861.14 -177.15,1259.46 -204.95,451.03 -730.81,708.69 -1213.77,622.59 -143.77,-37.82 -135.09,-216.83 -142.53,-334.55 0,-415.68 -28.42,-830.75 -7.95,-1246.33 -8.69,-148.11 25.32,-316.57 -55.82,-447.93 -301.58,-170.95 -670.03,-151.83 -1005.72,-162.89 -215.49,-24.18 -431.6,153.59 -421.06,375.38 -6.2,802.23 5.58,1605.69 -4.96,2407.92l-65.63 -1.86c-0.62,-804.71 1.24,-1608.79 -2.48,-2413.5 -13.64,-202.57 163.5,-341.99 321.94,-433.05zm0 0z"/>
     </g>
    </g>
    <polygon class="fil1" points="163.57,165.6 7216.23,165.6 7216.23,7286.73 163.57,7286.73 "/>
   </g>
   <g>
    <g>
    </g>
    <g style="clip-path:url(#id6)">
     <g>
      <path class="fil0" d="M-4824.77 558.36c229.13,24.81 461.99,102.84 628.59,267.59 630.45,629.41 1258.43,1261.93 1887.64,1892.59 201.23,196.99 384.57,416.93 618.05,578.57 27.8,-833.23 5.48,-1668.22 12.92,-2502.07 101.59,-90.43 206.29,-178.49 320.19,-254.66 372.79,122.68 779.07,26.67 1166.13,58.91 50.23,100.36 136.21,193.89 125.78,314.09 -4.34,1788.42 0,3577.56 -1.86,5366.6 -67.6,65.01 -133.23,131.36 -197.61,199.47 -125.68,-55.09 -263.14,-58.19 -396.98,-56.95 -229.76,-166.71 -448.35,-351.91 -621.15,-579.29 -424.16,-357.39 -779.7,-789.2 -1193.94,-1157.14 -127.02,-78.75 -241.53,-175.39 -305.92,-312.85 -87.95,-43.41 -161.64,-99.11 -152.34,-208.15 713.34,644.2 1388.44,1330.05 2060.34,2017.03 156.68,148.73 388.29,277.51 607.5,194.51 179.01,-26.66 142.42,-249.08 161.65,-382.81 -5.58,-1095.86 31.62,-2192.43 -9.3,-3288.28 4.34,-595.93 35.96,-1192.48 -5.58,-1787.9 -11.79,-139.94 -103.98,-288.05 -254.46,-300.45 -291.14,-15.4 -582.81,-13.54 -873.23,-5.58 -173.42,-7.96 -353.05,129.5 -356.15,309.13 -29.04,812.77 40.93,1629.25 -53.85,2439.02 -346.75,-197.61 -583.32,-527.2 -884.91,-780 -535.67,-517.9 -1053.47,-1054.3 -1578.61,-1582.75 -183.97,-198.85 -428.5,-379.2 -710.96,-376.1 -152.34,39.69 -208.67,196.37 -265.62,324.01 -86.09,-164.74 125.06,-338.17 273.68,-386.54zm0 0z"/>
     </g>
    </g>
    <polygon class="fil1" points="163.57,165.6 7216.23,165.6 7216.23,7286.73 163.57,7286.73 "/>
   </g>
   <g>
    <g>
    </g>
    <g style="clip-path:url(#id7)">
     <g>
      <path class="fil0" d="M-9512.13 609.73c336.82,2.48 695.46,-70.59 1017.4,53.33 33.49,143.14 73.18,284.95 85.48,432.43l-83.62 0c-6.09,-146.24 17.37,-349.44 -151.72,-413.21 -275.54,-116.47 -582.7,4.97 -867.54,-72.55zm0 0z"/>
     </g>
    </g>
    <polygon class="fil1" points="163.57,165.6 7216.23,165.6 7216.23,7286.73 163.57,7286.73 "/>
   </g>
   <g>
    <g>
    </g>
    <g style="clip-path:url(#id8)">
     <g>
      <path class="fil0" d="M10976.44 598.67c380.85,2.48 762.33,-1.86 1143.8,0.62 139.32,3.72 248.36,121.96 258.9,258.9 8.68,306.03 -3.1,612.68 1.24,919.33l-61.29 -0.62c3.72,-305.41 25.94,-612.06 6.82,-916.85 -14.26,-180.87 -229.23,-224.27 -375.99,-229.23 -271.2,6.2 -541.88,-4.35 -811.84,-12.41 -165.36,2.48 -249.6,169.19 -305.3,301.07 -0.62,-43.31 -2.48,-129.4 -3.1,-172.81 48.26,-48.88 97.87,-98.49 146.76,-148zm0 0z"/>
     </g>
    </g>
    <polygon class="fil1" points="163.57,165.6 7216.23,165.6 7216.23,7286.73 163.57,7286.73 "/>
   </g>
   <g>
    <g>
    </g>
    <g style="clip-path:url(#id9)">
     <g>
      <path class="fil0" d="M-35479.64 840.83l50.74 7.44c1.24,1754.41 -2.48,3508.83 2.48,5263.24 9.93,119.48 -76.79,212.5 -127.53,312.23 -144.9,-0.62 -290.43,-0.62 -435.33,-0.62l6.83 -36.58c137.45,9.3 284.22,29.76 414.23,-31.63 110.28,-136.84 87.96,-322.15 94.16,-485.65 -3.1,-847.5 12.4,-1695.51 9.92,-2543.62 -20.46,-392.12 -37.21,-785.48 -11.78,-1177.71 28.52,-435.42 -17.99,-870.95 -3.72,-1307.1zm0 0z"/>
     </g>
    </g>
    <polygon class="fil1" points="163.57,165.6 7216.23,165.6 7216.23,7286.73 163.57,7286.73 "/>
   </g>
   <g>
    <g>
    </g>
    <g style="clip-path:url(#id10)">
     <g>
      <path class="fil0" d="M21007.04 894.16c137.56,128.16 198.23,310.99 263.86,482.55 300.96,666.53 620.53,1324.47 919.63,1990.99 66.87,250.32 279.88,447.31 281.12,715.51 -237.09,-382.81 -375.89,-813.38 -585.8,-1210.46 -287.94,-661.57 -626.73,-1301.53 -878.81,-1978.59zm0 0z"/>
     </g>
    </g>
    <polygon class="fil1" points="163.57,165.6 7216.23,165.6 7216.23,7286.73 163.57,7286.73 "/>
   </g>
   <g>
    <g>
    </g>
    <g style="clip-path:url(#id11)">
     <g>
      <path class="fil0" d="M5951.52 1045.26c41.45,41.55 41.45,41.55 0,0zm0 0z"/>
     </g>
    </g>
    <polygon class="fil1" points="163.57,165.6 7216.23,165.6 7216.23,7286.73 163.57,7286.73 "/>
   </g>
   <g>
    <g>
    </g>
    <g style="clip-path:url(#id12)">
     <g>
      <path class="fil0" d="M10769.63 1157.4l59.42 -3.72c-25.42,424.36 3.11,925.52 -318.94,1252.63 4.96,-91.05 60.05,-161.74 113.89,-230.47 68.22,-337.66 188.31,-667.77 145.63,-1018.44zm0 0z"/>
     </g>
    </g>
    <polygon class="fil1" points="163.57,165.6 7216.23,165.6 7216.23,7286.73 163.57,7286.73 "/>
   </g>
   <g>
    <g>
    </g>
    <g style="clip-path:url(#id13)">
     <g>
      <path class="fil0" d="M-38953.85 1504.97c169.71,120.2 400.08,246.5 442.14,465.19 -159.78,-142.42 -322.66,-285.56 -442.14,-465.19zm0 0z"/>
     </g>
    </g>
    <polygon class="fil1" points="163.57,165.6 7216.23,165.6 7216.23,7286.73 163.57,7286.73 "/>
   </g>
   <g>
    <g>
    </g>
    <g style="clip-path:url(#id14)">
     <g>
      <path class="fil0" d="M25743.39 1892.75c172.81,-61.9 360.49,-42.78 537.54,-6.2 -178.29,27.29 -359.77,21.71 -537.54,6.2zm0 0z"/>
     </g>
    </g>
    <polygon class="fil1" points="163.57,165.6 7216.23,165.6 7216.23,7286.73 163.57,7286.73 "/>
   </g>
   <g>
    <g>
    </g>
    <g style="clip-path:url(#id15)">
     <g>
      <path class="fil0" d="M-32221.55 2069.28c31.01,-145.52 208.67,-137.46 322.05,-168.46l2.48 62.52c-44.65,0 -134.36,-0.62 -179.01,-0.62 -199.98,272.03 -115.75,616.4 -132.49,929.25l-63.15 1.86c6.82,-275.02 -6.2,-553.77 50.12,-824.55zm0 0z"/>
     </g>
    </g>
    <polygon class="fil1" points="163.57,165.6 7216.23,165.6 7216.23,7286.73 163.57,7286.73 "/>
   </g>
   <g>
    <g>
    </g>
    <g style="clip-path:url(#id16)">
     <g>
      <path class="fil0" d="M-28063.04 2271.85c29.14,-131.26 52.71,-311.61 206.29,-353.05 262.52,-44.65 525.14,36.48 788.27,43.92l0.62 72.56c-264.37,9.2 -516.45,-118.34 -782.17,-62.01 -96.53,73.69 -155.96,177.14 -154.2,300.44l-58.81 -1.86zm0 0z"/>
     </g>
    </g>
    <polygon class="fil1" points="163.57,165.6 7216.23,165.6 7216.23,7286.73 163.57,7286.73 "/>
   </g>
   <g>
    <g>
    </g>
    <g style="clip-path:url(#id17)">
     <g>
      <path class="fil0" d="M17158.8 1943.5c9.3,-1.24 26.66,-4.96 35.34,-6.2 -8.68,1.24 -26.04,4.96 -35.34,6.2zm0 0z"/>
     </g>
    </g>
    <polygon class="fil1" points="163.57,165.6 7216.23,165.6 7216.23,7286.73 163.57,7286.73 "/>
   </g>
   <g>
    <g>
    </g>
    <g style="clip-path:url(#id18)">
     <g>
      <path class="fil0" d="M25304.35 2292.32c22.32,-208.78 229.75,-317.19 403.8,-387.16 -73.69,116.47 -196.37,181.48 -299.21,266.96 -70.59,145.62 -68.11,301.68 0,447.93 86.71,107.79 214.35,170.94 318.95,260.14 416.82,29.76 829.3,103.45 1244.78,151.82 284.94,113.38 606.89,135.6 859.58,319.67 346.24,196.37 600.07,572.99 590.87,980.61 -70.69,-241.63 -148.72,-493.09 -335.07,-673.34 -263.24,-330.21 -689.26,-438.63 -1075.69,-550.15 -529.48,-128.26 -1140.71,-24.18 -1599.7,-371.65 -146.14,-96.64 -120.1,-294.25 -108.31,-444.83zm0 0z"/>
     </g>
    </g>
    <polygon class="fil1" points="163.57,165.6 7216.23,165.6 7216.23,7286.73 163.57,7286.73 "/>
   </g>
   <g>
    <g>
    </g>
    <g style="clip-path:url(#id19)">
     <g>
      <path class="fil0" d="M26357.1 1900.82c264.48,20.46 429.84,240.91 606.27,410.1 120.2,125.16 309.64,82.37 465.71,91.67l0 58.81c-176.43,-3.72 -378.38,35.35 -512.12,-109.66 -165.36,-176.52 -353.57,-325.76 -559.86,-450.92zm0 0z"/>
     </g>
    </g>
    <polygon class="fil1" points="163.57,165.6 7216.23,165.6 7216.23,7286.73 163.57,7286.73 "/>
   </g>
   <g>
    <g>
    </g>
    <g style="clip-path:url(#id20)">
     <g>
      <path class="fil0" d="M29447.35 1918.18c122.68,-0.62 259.52,-4.34 361.74,77.41 94.67,179.63 89.71,387.78 92.19,585.39 0,351.3 5.58,703.11 4.96,1055.03l-61.91 -0.62c-4.96,-472.12 8.68,-944.13 -6.82,-1415.52 -25.94,-203.82 -235.96,-231.72 -390.16,-301.69zm0 0z"/>
     </g>
    </g>
    <polygon class="fil1" points="163.57,165.6 7216.23,165.6 7216.23,7286.73 163.57,7286.73 "/>
   </g>
   <g>
    <g>
    </g>
    <g style="clip-path:url(#id21)">
     <g>
      <path class="fil0" d="M31380.15 2117.03c-2.48,-157.41 165.37,-171.67 279.98,-214.97 -89.81,121.43 -270.68,203.19 -265.1,372.89 -5.58,884.08 -0.62,1768.68 -2.48,2653.28 130.13,73.79 269.45,128.26 420.55,138.18 185.72,13.02 333.1,182.73 324.53,367.94 -1.25,243.5 3.1,486.99 -1.87,729.77 -6.2,159.89 -160.4,278.12 -315.84,262.1 -338.79,-5.58 -678.82,6.82 -1016.89,-9.92 298.48,-71.93 602.55,-16.74 904.13,-1.86 159.16,17.36 348.09,-79.99 356.77,-256.52 25.95,-288.04 42.69,-587.25 -21.08,-870.95 -132.5,-224.28 -450.82,-150.59 -649.68,-283.19 -94.77,-280.6 -26.56,-582.91 -45.78,-872.82 27.18,-670.86 -61.29,-1346.79 32.76,-2013.93zm0 0z"/>
     </g>
    </g>
    <polygon class="fil1" points="163.57,165.6 7216.23,165.6 7216.23,7286.73 163.57,7286.73 "/>
   </g>
   <g>
    <g>
    </g>
    <g style="clip-path:url(#id22)">
     <g>
      <path class="fil0" d="M28232.33 1965.82l64.39 -8.06c-1.24,98.5 -1.24,196.99 -0.62,296.11 -70.59,66.35 -138.08,134.46 -203.09,204.43 -180.86,0 -360.49,0 -540.01,0l0 -56.95c175.28,-4.96 354.81,15.51 528.23,-22.32 161.65,-76.79 154.2,-261.38 151.1,-413.21zm0 0z"/>
     </g>
    </g>
    <polygon class="fil1" points="163.57,165.6 7216.23,165.6 7216.23,7286.73 163.57,7286.73 "/>
   </g>
   <g>
    <g>
    </g>
    <g style="clip-path:url(#id23)">
     <g>
      <path class="fil0" d="M23905.98 3021.47c-45.27,-273.16 -146.76,-580.43 -20.46,-843.15 9.3,278.12 21.7,557.59 70.59,831.99l-50.13 11.16zm0 0z"/>
     </g>
    </g>
    <polygon class="fil1" points="163.57,165.6 7216.23,165.6 7216.23,7286.73 163.57,7286.73 "/>
   </g>
   <g>
    <g>
    </g>
    <g style="clip-path:url(#id24)">
     <g>
      <path class="fil0" d="M14430.8 2781.69l48.37 -5.58c2.48,26.67 7.44,78.76 9.92,105.32l-48.37 6.2c-2.48,-26.67 -7.44,-79.27 -9.92,-105.94zm0 0z"/>
     </g>
    </g>
    <polygon class="fil1" points="163.57,165.6 7216.23,165.6 7216.23,7286.73 163.57,7286.73 "/>
   </g>
   <g>
    <g>
    </g>
    <g style="clip-path:url(#id25)">
     <g>
      <path class="fil0" d="M14423.98 3077.8l65.73 -6.2c3.72,270.78 5.48,542.08 1.24,812.76l-66.97 -1.24c-0.62,-268.2 -0.62,-537.02 0,-805.32zm0 0z"/>
     </g>
    </g>
    <polygon class="fil1" points="163.57,165.6 7216.23,165.6 7216.23,7286.73 163.57,7286.73 "/>
   </g>
   <g>
    <g>
    </g>
    <g style="clip-path:url(#id26)">
     <g>
      <path class="fil0" d="M-32273.53 3138.57l65.01 1.24c0,597.17 0,1193.72 0,1790.9 210.53,177.14 615.56,44.65 702.9,359.98 -208.77,-161.13 -475.63,-181.6 -709.73,-284.43 -73.69,-200.71 -42.78,-418.68 -48.26,-627.46 9.2,-413.2 2.38,-827.03 -9.92,-1240.23zm0 0z"/>
     </g>
    </g>
    <polygon class="fil1" points="163.57,165.6 7216.23,165.6 7216.23,7286.73 163.57,7286.73 "/>
   </g>
   <g>
    <g>
    </g>
    <g style="clip-path:url(#id27)">
     <g>
      <path class="fil0" d="M-38933.39 4188.53c-2.48,-187.07 28.43,-372.28 78.66,-551.9 246.39,219.93 479.86,454.03 704.76,695.66 -284.94,-91.67 -443.49,-393.36 -667.66,-580.43 -38.34,122.68 -86.09,245.26 -78.65,376.62 -1.24,639.96 -0.62,1279.92 1.86,1920.4 14.88,105.94 -58.19,189.55 -106.46,276.37 34.01,-171.05 63.77,-343.24 63.15,-517.9 1.24,-539.61 1.86,-1079.21 4.34,-1618.82zm0 0z"/>
     </g>
    </g>
    <polygon class="fil1" points="163.57,165.6 7216.23,165.6 7216.23,7286.73 163.57,7286.73 "/>
   </g>
   <g>
    <g>
    </g>
    <g style="clip-path:url(#id28)">
     <g>
      <path class="fil0" d="M4589.64 3833.62c40.93,41.54 40.93,41.54 0,0zm0 0z"/>
     </g>
    </g>
    <polygon class="fil1" points="163.57,165.6 7216.23,165.6 7216.23,7286.73 163.57,7286.73 "/>
   </g>
   <g>
    <g>
    </g>
    <g style="clip-path:url(#id29)">
     <g>
      <path class="fil0" d="M-40507.04 3883.12l60.67 0c-2.48,247.84 1.24,495.68 1.24,744.04l-61.91 -0.62c0,-247.74 0,-495.58 0,-743.42zm0 0z"/>
     </g>
    </g>
    <polygon class="fil1" points="163.57,165.6 7216.23,165.6 7216.23,7286.73 163.57,7286.73 "/>
   </g>
   <g>
    <g>
    </g>
    <g style="clip-path:url(#id30)">
     <g>
      <path class="fil0" d="M-5146.2 3883.12l67.49 -2.48c4.34,331.46 5.58,663.53 0,994.98l-67.49 -1.24c0,-330.21 0,-661.04 0,-991.26zm0 0z"/>
     </g>
    </g>
    <polygon class="fil1" points="163.57,165.6 7216.23,165.6 7216.23,7286.73 163.57,7286.73 "/>
   </g>
   <g>
    <g>
    </g>
    <g style="clip-path:url(#id31)">
     <g>
      <path class="fil0" d="M-24344.2 4126.62c135.6,-120.82 328.87,-78.03 494.23,-84.23 375.28,20.46 751.17,-10.54 1125.83,13.02l-9.92 75.55c-513.98,0.62 -1028.57,0 -1543.27,0 -108.93,228 -149.24,476.36 -128.16,727.92 83,60.05 166.61,117.72 255.18,169.7 161.03,-81.13 318.95,41.55 484.83,29.77 392.02,3.1 784.03,-4.34 1176.05,0.62 118.96,-8.68 213.63,74.93 313.99,125.16 0,369.18 -2.48,737.84 2.48,1107.01 -29.66,21.09 -89.2,63.77 -118.24,84.85 111.42,-323.39 93.43,-670.24 78.03,-1006.03 -7.44,-126.4 -94.15,-242.88 -226.03,-255.28 -598.93,-100.98 -1207.68,45.26 -1806.5,-55.71 -173.43,-25.43 -197.61,-227.38 -193.89,-369.18 8.06,-187.17 -35.25,-407.62 95.39,-563.17zm0 0z"/>
     </g>
    </g>
    <polygon class="fil1" points="163.57,165.6 7216.23,165.6 7216.23,7286.73 163.57,7286.73 "/>
   </g>
   <g>
    <g>
    </g>
    <g style="clip-path:url(#id32)">
     <g>
      <path class="fil0" d="M22484.67 4116.7c58.92,50.23 114,107.8 131.37,187.07 102.11,305.41 333.1,570.61 352.33,900.82 -170.95,-358.73 -372.8,-704.45 -483.7,-1087.89zm0 0z"/>
     </g>
    </g>
    <polygon class="fil1" points="163.57,165.6 7216.23,165.6 7216.23,7286.73 163.57,7286.73 "/>
   </g>
   <g>
    <g>
    </g>
    <g style="clip-path:url(#id33)">
     <g>
      <path class="fil0" d="M25514.88 4124.76c138.7,-9.92 276.26,16.13 412.48,44.65 -99.12,52.61 -401.94,95.4 -412.48,-44.65zm0 0z"/>
     </g>
    </g>
    <polygon class="fil1" points="163.57,165.6 7216.23,165.6 7216.23,7286.73 163.57,7286.73 "/>
   </g>
   <g>
    <g>
    </g>
    <g style="clip-path:url(#id34)">
     <g>
      <path class="fil0" d="M25968.18 4176.23c302.21,38.97 636.66,23.46 895.56,211.88 145.52,98.49 169.08,309.02 97.15,460.23 -56.95,178.38 -250.12,257.65 -414.86,305.4 -284.95,53.85 -587.77,56.33 -864.55,-34.72 -231.61,-82.38 -372.17,-295.49 -565.44,-433.57 -134.36,-54.57 -284.22,-38.45 -424.78,-52.71 182,-17.98 413,-93.53 556.14,63.77 174.56,186.55 373.41,381.06 636.55,421.89 200.71,4.34 403.18,9.92 604.51,-4.34 160.92,-59.43 309.03,-149.87 444.62,-254.56 -0.62,-114 0,-228 0.63,-342 -250.22,-229.23 -593.97,-276.26 -918.4,-271.3l-47.13 -69.97zm0 0z"/>
     </g>
    </g>
    <polygon class="fil1" points="163.57,165.6 7216.23,165.6 7216.23,7286.73 163.57,7286.73 "/>
   </g>
   <g>
    <g>
    </g>
    <g style="clip-path:url(#id35)">
     <g>
      <path class="fil0" d="M5161.29 4405.37c91.67,-44.55 114.62,-20.99 70.59,70.69 -92.3,44.54 -115.76,20.98 -70.59,-70.69zm0 0z"/>
     </g>
    </g>
    <polygon class="fil1" points="163.57,165.6 7216.23,165.6 7216.23,7286.73 163.57,7286.73 "/>
   </g>
   <g>
    <g>
    </g>
    <g style="clip-path:url(#id36)">
     <g>
      <path class="fil0" d="M28431.7 4381.28l50.23 -6.2c0,208.78 0,416.93 0.62,625.7l-60.67 -3.1c20.36,-205.05 28.42,-411.34 9.82,-616.4zm0 0z"/>
     </g>
    </g>
    <polygon class="fil1" points="163.57,165.6 7216.23,165.6 7216.23,7286.73 163.57,7286.73 "/>
   </g>
   <g>
    <g>
    </g>
    <g style="clip-path:url(#id37)">
     <g>
      <path class="fil0" d="M23776.59 4829.73c44.54,-81.13 99.01,-156.68 162.16,-224.89 -61.29,197.61 -102.12,408.86 -22.85,608.33 151.73,562.55 675.62,907.03 1169.86,1147.94 -166.61,6.82 -351.82,-35.24 -464.47,-164.74 -180.87,-193.89 -431.71,-313.47 -580.95,-537.75 -108.93,-269.44 -247.12,-534.02 -263.75,-828.89zm0 0z"/>
     </g>
    </g>
    <polygon class="fil1" points="163.57,165.6 7216.23,165.6 7216.23,7286.73 163.57,7286.73 "/>
   </g>
   <g>
    <g>
    </g>
    <g style="clip-path:url(#id38)">
     <g>
      <path class="fil0" d="M4898.67 4700.85c41.55,41.55 41.55,41.55 0,0zm0 0z"/>
     </g>
    </g>
    <polygon class="fil1" points="163.57,165.6 7216.23,165.6 7216.23,7286.73 163.57,7286.73 "/>
   </g>
   <g>
    <g>
    </g>
    <g style="clip-path:url(#id39)">
     <g>
      <path class="fil0" d="M14423.98 4688.55l66.35 -1.24c4.24,227.89 4.24,455.89 -0.62,683.27l-65.73 -0.62c-0.62,-227.38 -0.62,-454.76 0,-681.41zm0 0z"/>
     </g>
    </g>
    <polygon class="fil1" points="163.57,165.6 7216.23,165.6 7216.23,7286.73 163.57,7286.73 "/>
   </g>
   <g>
    <g>
    </g>
    <g style="clip-path:url(#id40)">
     <g>
      <path class="fil0" d="M-40507.04 5369.96l61.91 -0.62c-0.62,165.98 -1.86,332.07 -1.86,498.05l-60.05 -1.86c0,-165.36 0,-330.83 0,-495.57zm0 0z"/>
     </g>
    </g>
    <polygon class="fil1" points="163.57,165.6 7216.23,165.6 7216.23,7286.73 163.57,7286.73 "/>
   </g>
   <g>
    <g>
    </g>
    <g style="clip-path:url(#id41)">
     <g>
      <path class="fil0" d="M-5146.2 5369.96l66.87 -1.24c3.72,208.15 4.96,416.3 0.62,625.08l-67.49 -4.35c0,-206.91 0,-413.2 0,-619.49zm0 0z"/>
     </g>
    </g>
    <polygon class="fil1" points="163.57,165.6 7216.23,165.6 7216.23,7286.73 163.57,7286.73 "/>
   </g>
   <g>
    <g>
    </g>
    <g style="clip-path:url(#id42)">
     <g>
      <path class="fil0" d="M-21182.74 6094.15c52.71,108.42 70.59,276.26 212.5,303.55 152.96,32.24 310.88,18.6 466.32,22.94l1.24 64.39c-159.78,0 -319.56,0 -478.73,0 -67.49,-71.21 -136.84,-140.66 -207.53,-208.15 1.86,-45.89 4.96,-136.94 6.2,-182.73zm0 0z"/>
     </g>
    </g>
    <polygon class="fil1" points="163.57,165.6 7216.23,165.6 7216.23,7286.73 163.57,7286.73 "/>
   </g>
   <g>
    <g>
    </g>
    <g style="clip-path:url(#id43)">
     <g>
      <path class="fil0" d="M25123.48 6374.75c566.06,161.13 1172.95,183.97 1745.22,37.83l5.58 65.63c-319.57,118.96 -662.08,53.33 -994.67,70.59 -259.42,11.78 -542.5,-12.92 -756.13,-174.05zm0 0z"/>
     </g>
    </g>
    <polygon class="fil1" points="163.57,165.6 7216.23,165.6 7216.23,7286.73 163.57,7286.73 "/>
   </g>
   <g>
    <g>
    </g>
    <g style="clip-path:url(#id44)">
     <g>
      <path class="fil0" d="M26915.72 6400.18c34.11,-8.06 102.22,-23.57 136.84,-31.01 55.81,103.46 -170.32,162.37 -136.84,31.01zm0 0z"/>
     </g>
    </g>
    <polygon class="fil1" points="163.57,165.6 7216.23,165.6 7216.23,7286.73 163.57,7286.73 "/>
   </g>
   <g>
    <g>
    </g>
    <g style="clip-path:url(#id45)">
     <g>
      <path class="fil0" d="M-19752.13 6424.36c26.67,0 79.89,0 106.56,0l0 48.89c-26.67,0 -80.51,0 -107.18,0l0.62 -48.89zm0 0z"/>
     </g>
    </g>
    <polygon class="fil1" points="163.57,165.6 7216.23,165.6 7216.23,7286.73 163.57,7286.73 "/>
   </g>
   <path class="fil2" d="M3235.31 497.08c502.19,-11.79 1026.81,-66.98 1509.16,107.79 1086.23,347.48 1952.02,1321.37 2157.69,2445.13 28.42,405.76 30.29,815.86 -1.86,1221.63 -244.63,1276.09 -1338.93,2350.96 -2629.5,2536.79 -775.35,84.86 -1638.66,4.96 -2257.33,-516.04 186.34,-45.27 376.51,-74.93 566.58,-100.35 1172.95,-216.84 2209.06,-922.43 2952.79,-1839.89 35.35,193.27 63.15,387.78 88.57,583.53 235.96,-42.07 267.58,-306.65 294.15,-501.78 48.37,-288.04 33.48,-597.17 -95.92,-862.89 -175.9,-65.11 -372.27,-19.85 -555.52,-27.91 -304.68,18.61 -645.95,4.96 -904.23,191.41 -7.34,71.21 -0.62,144.28 17.98,214.36 269.44,100.35 559.86,68.73 841.6,73.69 -582.7,913.74 -1548.84,1539.44 -2581.13,1830.58 -318.33,82.37 -640.99,179.01 -972.34,171.05 -145.52,-62.63 -245.26,-195.23 -349.23,-308.51 -477.49,-578.05 -785.9,-1322.71 -749.41,-2080.28 -49.51,-1512.16 1177.91,-2928.92 2667.95,-3138.31zm0 0z"/>
  </g>
 </g>
</svg>
