<svg width="200" height="22" viewBox="0 0 200 22" fill="none" xmlns="http://www.w3.org/2000/svg">
<g clip-path="url(#clip0_3957_9702)">
<path d="M9.63021 15.4506L7.36428 18.1335V21.5339H0V0.320481H7.36428V7.80754L13.7529 0.320481H22.376L14.6341 9.52333L22.6908 21.5339H14.0677L9.63021 15.4506ZM32.384 -0.147461C39.4335 -0.147461 44.1228 4.59435 44.1228 10.9272C44.1228 17.26 39.4335 22.0018 32.384 22.0018C25.3343 22.0018 20.6452 17.26 20.6452 10.9272C20.6452 4.59435 25.3343 -0.147461 32.384 -0.147461ZM32.384 15.1698C34.9332 15.1698 36.6326 13.1733 36.6326 10.9272C36.6326 8.68103 34.9332 6.68448 32.384 6.68448C29.8348 6.68448 28.1353 8.68103 28.1353 10.9272C28.1353 13.1733 29.8348 15.1698 32.384 15.1698ZM70.9047 0.320481V21.5339H63.5405V13.1421L60.3933 17.6967V17.7903H56.6798V17.6967L53.5327 13.1421V21.5339H46.1684V0.320481H51.9905L58.5366 8.80583L65.0826 0.320481H70.9047ZM98.1589 0.320481V21.5339H90.7946V13.1421L87.6474 17.6967V17.7903H83.934V17.6967L80.7868 13.1421V21.5339H73.4225V0.320481H79.2447L85.7907 8.80583L92.3367 0.320481H98.1589ZM121.762 0.320481V10.9272C121.762 18.2271 117.923 22.0018 111.062 22.0018C104.201 22.0018 100.362 18.2271 100.362 10.9272V0.320481H107.852V11.2391C107.852 13.766 109.017 15.1698 111.062 15.1698C113.108 15.1698 114.272 13.766 114.272 11.2391V0.320481H121.762ZM144.673 0.320481V21.5339H138.883L138.851 21.4403L131.33 13.1109V21.5339H123.965V0.320481H129.788L137.309 8.83702V0.320481H144.673ZM154.556 0.320481V21.5339H147.191V0.320481H154.556ZM175.484 6.55971H169.567V21.5339H162.203V6.55971H156.286V0.320481H175.484V6.55971ZM191.66 16.3553L191.691 21.5339H184.327L184.296 16.3553L175.956 0.320481H184.107L187.946 7.74515L191.849 0.320481H200L191.66 16.3553Z" fill="white"/>
</g>
<defs>
<clipPath id="clip0_3957_9702">
<rect width="200" height="22" fill="white"/>
</clipPath>
</defs>
</svg>
