<svg width="1451" height="310" viewBox="0 0 1451 310" fill="none" xmlns="http://www.w3.org/2000/svg">
<path d="M79.1151 139.813L77.9199 98C78.0918 90.8063 81.9706 84.1406 85.8141 77.5355C90.2558 69.9025 94.6504 62.3504 93.2228 54.1577C86.3188 14.5361 62.7103 0.0144396 41.2318 0C18.4601 0 0 18.4176 0 41.137V102.762C0 159.517 46.1143 205.525 102.999 205.525C113.357 205.525 123.358 204 132.788 201.162C132.969 202.587 133.062 204.04 133.062 205.515C133.062 224.433 117.691 239.769 98.7292 239.769C91.7461 239.769 85.2499 237.689 79.8291 234.116C75.3727 231.179 70.9684 227.592 66.5146 223.964C55.3506 214.871 43.8749 205.525 30.487 205.525C11.7541 205.525 -3.97309 221.07 1.98732 238.788C15.9113 280.18 55.1072 310 101.284 310C159.117 310 206 263.225 206 205.525L206 106.188H205.942C205.98 105.051 205.999 103.909 205.999 102.762V41.105C205.999 18.4033 187.553 0 164.799 0C144.598 0 120.965 14.7286 112.482 55.0173C110.849 62.7746 114.849 70.0982 118.89 77.4972C122.439 83.9965 126.02 90.554 125.843 97.5146L123.844 145.432V151.777C123.844 154.023 121.833 155.856 119.362 155.856C116.902 155.856 114.891 154.023 114.891 151.777V131.969C114.891 131.638 114.892 131.324 114.895 130.994C114.929 127.333 115.144 103.876 115.144 101.898C115.144 99.752 113.375 97.8504 110.848 97.8504C108.321 97.8504 107.058 99.7585 107.058 101.898C107.058 103.803 105.919 141.883 105.67 150.186C105.664 150.386 105.662 150.586 105.66 150.786C105.653 151.667 105.645 152.546 105.279 153.345C104.605 154.817 103.014 155.855 101.164 155.855C98.702 155.855 96.691 154.022 96.691 151.776V130.571C96.691 129.933 96.6856 129.307 96.6742 128.669C96.5921 124.053 96.2348 104.005 96.1919 102.009C96.1434 99.7519 94.9284 97.8569 92.4015 97.8569C89.8746 97.8569 88.3584 99.2831 88.3584 102.009C88.3584 104.607 88.0947 147.463 88.07 151.476C88.0697 151.519 88.0697 151.56 88.0696 151.601C88.0694 151.772 88.0692 151.931 88.0534 152.109C87.8671 154.201 85.9367 155.856 83.5969 155.856C81.1114 155.856 79.1151 154.023 79.1151 151.777V139.813Z" fill="white"/>
<path d="M1305.03 292.973L1305.06 292.992L1305.09 293.01C1320.77 301.719 1339.07 306 1359.85 306C1372.18 306 1384.16 304.026 1395.76 300.079L1395.79 300.066L1395.83 300.054C1407.23 295.929 1416.37 291.106 1423.05 285.479C1430.3 279.759 1434.51 272.894 1434.51 264.897C1434.51 259.032 1432.27 253.888 1428.03 249.631C1423.89 245.223 1418.54 243.059 1412.31 243.059C1407.74 243.059 1403.09 244.344 1398.39 246.692L1398.32 246.724L1398.26 246.758C1395.55 248.238 1392.5 250.067 1389.13 252.234C1386.48 253.858 1382.72 255.391 1377.71 256.757C1372.97 258.051 1366.35 258.757 1357.71 258.757C1348.88 258.757 1340.5 256.672 1332.51 252.472C1324.85 248.082 1318.45 241.82 1313.32 233.585C1311.26 230.015 1309.62 226.093 1308.43 221.805H1421.23C1427.85 221.805 1433.76 219.709 1438.78 215.527C1443.95 211.217 1446.71 205.511 1447 198.707L1447 198.624V198.541C1447 185.175 1444.4 172.508 1439.18 160.58C1434.24 148.738 1427.44 138.338 1418.77 129.415C1410.1 120.257 1400.05 113.065 1388.65 107.86C1377.4 102.616 1365.41 100 1352.71 100C1336.29 100 1320.73 104.239 1306.11 112.664C1291.41 121.131 1279.51 133.313 1270.38 149.089L1270.38 149.098L1270.37 149.107C1261.39 164.824 1257 183.74 1257 205.676C1257 224.579 1261.06 241.657 1269.26 256.812L1269.27 256.834L1269.28 256.856C1277.73 272.01 1289.67 284.06 1305.03 292.973ZM1308.85 178.13C1309.13 177.125 1309.43 176.156 1309.75 175.225C1312.22 168.044 1315.51 162.551 1319.5 158.559C1323.55 154.507 1328.34 151.634 1333.91 149.921C1339.67 148.146 1345.93 147.243 1352.71 147.243C1359.46 147.243 1365.73 148.76 1371.57 151.789L1371.65 151.829L1371.73 151.866C1377.85 154.707 1382.81 158.603 1386.68 163.547L1386.71 163.588L1386.74 163.629C1390.35 167.993 1392.47 172.803 1393.16 178.13H1308.85Z" fill="white" stroke="white" stroke-width="8"/>
<path d="M1209.86 154.465L1209.9 154.422L1209.92 154.377C1213.17 149.495 1214.86 144.214 1214.86 138.605C1214.86 130.269 1211.48 123.154 1205.03 117.462C1198.95 111.661 1190.48 107.386 1179.92 104.432C1169.51 101.452 1157.39 100 1143.6 100C1124.68 100 1107.71 104.44 1092.79 113.41C1078.14 122.122 1066.62 134.32 1058.22 149.909L1058.22 149.919L1058.21 149.93C1050.03 165.343 1046 183.132 1046 203.178C1046 222.272 1049.79 239.653 1057.44 255.244L1057.45 255.266L1057.46 255.289C1065.37 270.891 1076.53 283.33 1090.91 292.527L1090.93 292.54L1090.95 292.553C1105.44 301.568 1122.45 306 1141.82 306C1154.7 306 1166.68 304.539 1177.73 301.583L1177.76 301.576L1177.79 301.567C1188.99 298.395 1198.23 294.306 1205.36 289.198L1205.4 289.171L1205.44 289.143C1212.66 283.713 1217 277.19 1217 269.535C1217 263.015 1215.08 257.301 1211.07 252.679C1206.85 247.574 1200.89 245.2 1193.78 245.2C1188.12 245.2 1183.12 246.345 1179.5 249.318C1177.11 251.279 1174.36 253.158 1171.25 254.948C1168.88 256.123 1165.76 257.081 1161.8 257.741C1157.81 258.408 1152.94 258.757 1147.16 258.757C1137.18 258.757 1128.45 256.324 1120.84 251.538C1113.39 246.698 1107.45 240.216 1103.02 232.017C1098.84 223.616 1096.71 214.032 1096.71 203.178C1096.71 192.046 1098.86 182.464 1103.03 174.321L1103.04 174.302L1103.05 174.283C1107.24 165.888 1113.14 159.319 1120.8 154.49C1128.59 149.724 1138.14 147.243 1149.65 147.243C1151.61 147.243 1154.85 147.651 1159.54 148.592L1159.65 148.614L1159.76 148.63C1164.58 149.319 1167.62 150.298 1169.3 151.309L1169.37 151.351L1169.44 151.391C1171.84 152.701 1173.84 154.085 1175.48 155.526C1177.65 157.427 1180.07 159.042 1182.74 160.376L1182.94 160.479L1183.16 160.558C1186.34 161.716 1190.03 162.227 1194.14 162.227C1200.74 162.227 1206.18 159.695 1209.86 154.465Z" fill="white" stroke="white" stroke-width="8"/>
<path d="M864.027 292.973L864.06 292.992L864.093 293.01C879.774 301.719 898.072 306 918.851 306C931.182 306 943.156 304.026 954.755 300.079L954.791 300.066L954.827 300.054C966.234 295.929 975.375 291.106 982.045 285.479C989.305 279.759 993.51 272.894 993.51 264.897C993.51 259.032 991.27 253.888 987.033 249.631C982.893 245.223 977.539 243.059 971.31 243.059C966.743 243.059 962.086 244.344 957.388 246.692L957.324 246.724L957.262 246.758C954.548 248.238 951.501 250.067 948.127 252.234C945.478 253.858 941.721 255.391 936.713 256.757C931.967 258.051 925.348 258.757 916.71 258.757C907.878 258.757 899.496 256.672 891.514 252.472C883.852 248.082 877.452 241.82 872.32 233.585C870.26 230.015 868.624 226.093 867.429 221.805H980.231C986.852 221.805 992.76 219.709 997.78 215.527C1002.95 211.217 1005.71 205.511 1006 198.707L1006 198.624V198.541C1006 185.175 1003.4 172.508 998.184 160.58C993.244 148.738 986.438 138.338 977.765 129.415C969.095 120.257 959.05 113.065 947.648 107.86C936.403 102.616 924.409 100 911.714 100C895.288 100 879.733 104.239 865.109 112.664C850.412 121.131 838.508 133.313 829.384 149.089L829.379 149.098L829.374 149.107C820.39 164.824 816 183.74 816 205.676C816 224.579 820.057 241.657 828.259 256.812L828.271 256.834L828.283 256.856C836.732 272.01 848.672 284.06 864.027 292.973ZM867.847 178.13C868.127 177.125 868.427 176.156 868.747 175.225C871.216 168.044 874.505 162.551 878.499 158.559C882.552 154.507 887.335 151.634 892.905 149.921C898.673 148.146 904.934 147.243 911.714 147.243C918.461 147.243 924.728 148.76 930.571 151.789L930.648 151.829L930.728 151.866C936.849 154.707 941.807 158.603 945.678 163.547L945.71 163.588L945.744 163.629C949.35 167.993 951.466 172.803 952.155 178.13H867.847Z" fill="white" stroke="white" stroke-width="8"/>
<path d="M543.078 114.588C538.658 117.852 534.72 121.356 531.277 125.105C530.44 119.834 528.138 115.212 524.322 111.383C519.409 106.208 513.139 103.633 505.818 103.633C498.497 103.633 492.227 106.208 487.314 111.383C482.405 116.309 480 122.55 480 129.794V279.839C480 287.102 482.414 293.43 487.275 298.572L487.314 298.613L487.355 298.654C492.291 303.586 498.551 306 505.818 306C513.086 306 519.345 303.586 524.282 298.654L524.322 298.613L524.361 298.572C529.222 293.43 531.636 287.102 531.636 279.839V186.833C531.636 179.389 533.098 172.879 535.928 167.215C538.965 161.374 543.396 156.72 549.311 153.218C555.121 149.778 562.263 147.963 570.909 147.963C579.889 147.963 586.173 149.814 590.305 152.959C594.673 156.285 597.723 160.753 599.438 166.535L599.444 166.556L599.45 166.575C601.25 172.42 602.182 179.158 602.182 186.833V279.839C602.182 287.102 604.596 293.43 609.457 298.572L609.496 298.613L609.537 298.654C614.473 303.586 620.733 306 628 306C635.267 306 641.527 303.586 646.464 298.654L646.504 298.613L646.543 298.572C651.404 293.43 653.818 287.102 653.818 279.839V186.833C653.818 179.389 655.28 172.879 658.11 167.214C661.147 161.374 665.578 156.72 671.492 153.218C677.302 149.778 684.444 147.963 693.091 147.963C702.071 147.963 708.355 149.814 712.486 152.959C716.855 156.285 719.905 160.753 721.62 166.535L721.626 166.556L721.632 166.575C723.432 172.42 724.364 179.158 724.364 186.833V279.839C724.364 287.102 726.778 293.43 731.639 298.572L731.678 298.613L731.718 298.654C736.655 303.586 742.914 306 750.182 306C757.449 306 763.709 303.585 768.645 298.654L768.686 298.613L768.725 298.572C773.586 293.43 776 287.102 776 279.839V186.833C776 171.288 774.272 157.123 770.77 144.37C767.182 131.061 760.461 120.266 750.548 112.179C740.579 103.844 726.299 100 708.364 100C697.108 100 686.769 102.432 677.426 107.354C668.575 111.905 660.936 117.617 654.546 124.505C651.059 128.13 648.037 131.682 645.501 135.162C642.11 127.632 637.596 121.017 631.936 115.357C621.679 104.853 606.136 100 586.182 100C577.753 100 569.877 101.401 562.597 104.25C555.478 106.796 548.966 110.24 543.078 114.588Z" fill="white" stroke="white" stroke-width="8"/>
<path d="M298.027 292.973L298.06 292.992L298.093 293.01C313.774 301.719 332.072 306 352.851 306C365.182 306 377.156 304.026 388.755 300.079L388.791 300.066L388.827 300.054C400.234 295.929 409.375 291.106 416.045 285.479C423.305 279.759 427.51 272.894 427.51 264.897C427.51 259.032 425.27 253.888 421.033 249.631C416.893 245.223 411.539 243.059 405.31 243.059C400.743 243.059 396.086 244.344 391.388 246.692L391.324 246.724L391.262 246.758C388.548 248.238 385.501 250.067 382.127 252.234C379.478 253.858 375.721 255.391 370.713 256.757C365.967 258.051 359.348 258.757 350.71 258.757C341.878 258.757 333.496 256.672 325.514 252.472C317.852 248.082 311.452 241.82 306.32 233.585C304.26 230.015 302.624 226.093 301.429 221.805H414.231C420.852 221.805 426.76 219.709 431.78 215.527C436.954 211.217 439.713 205.511 439.997 198.707L440 198.624V198.541C440 185.175 437.399 172.508 432.184 160.58C427.244 148.738 420.438 138.338 411.765 129.415C403.095 120.257 393.05 113.065 381.648 107.86C370.403 102.616 358.409 100 345.714 100C329.288 100 313.733 104.239 299.109 112.664C284.412 121.131 272.508 133.313 263.384 149.089L263.379 149.098L263.374 149.107C254.39 164.824 250 183.74 250 205.676C250 224.579 254.057 241.657 262.259 256.812L262.271 256.834L262.283 256.856C270.732 272.01 282.672 284.06 298.027 292.973ZM301.847 178.13C302.127 177.125 302.427 176.156 302.747 175.225C305.216 168.044 308.505 162.551 312.499 158.559C316.552 154.507 321.335 151.634 326.905 149.921C332.673 148.146 338.934 147.243 345.714 147.243C352.461 147.243 358.728 148.76 364.571 151.789L364.648 151.829L364.728 151.866C370.849 154.707 375.807 158.603 379.678 163.547L379.71 163.588L379.744 163.629C383.35 167.993 385.466 172.803 386.155 178.13H301.847Z" fill="white" stroke="white" stroke-width="8"/>
</svg>
